<svg width="270" height="176" viewBox="0 0 270 176" fill="none" xmlns="http://www.w3.org/2000/svg">
<path d="M88.5172 73.6801C49.9768 71.4131 10.1139 93.5171 -5 104.853V164.363C33.7293 144.526 118.556 102.019 148.028 90.6833C177.5 79.3479 241.545 85.9602 269.884 90.6833L204.705 69.6579L182.034 62.3447L216.041 19.8369C193.772 35.743 145.925 64.6393 108.354 72.0239C101.301 73.4103 94.6091 74.0385 88.5172 73.6801Z" fill="#966B49"/>
<path d="M116.856 36.8401C100.986 48.1755 102.686 62.3448 105.52 68.0125C107.409 68.9571 112.888 70.2796 119.689 68.0125C128.191 65.1786 131.025 59.5109 136.692 48.1755C141.227 39.1072 140.471 29.2832 139.526 25.5047L116.856 36.8401Z" fill="#468B6C"/>
<path d="M176.366 14.1693C167.298 20.9705 170.699 34.0062 173.532 39.674V42.5078C179.2 40.6186 190.536 35.1398 190.536 28.3385V0C189.591 1.88924 185.435 7.36802 176.366 14.1693Z" fill="#468B6C"/>
<path d="M190.536 121.856C176.933 115.054 177.311 96.351 179.2 87.8495C210.373 79.3479 213.206 99.1849 218.874 104.853C223.408 109.387 220.763 129.413 218.874 138.859C215.096 136.025 204.138 128.657 190.536 121.856Z" fill="#468B6C"/>
<path d="M60.1783 170.031C39.7745 167.764 34.6736 152.084 34.6736 144.527C43.1751 141.693 61.8786 136.592 68.6798 138.859C77.1814 141.693 85.683 178.533 80.0153 175.699C75.4811 173.432 64.9014 170.976 60.1783 170.031Z" fill="#468B6C"/>
<path d="M119.689 136.025C101.553 131.491 97.0184 120.911 97.0184 116.188C103.631 112.41 117.989 104.853 122.523 104.853C127.057 104.853 137.637 129.413 142.36 141.693L119.689 136.025Z" fill="#468B6C"/>
</svg>
