<svg width="248" height="162" viewBox="0 0 248 162" fill="none" xmlns="http://www.w3.org/2000/svg">
<path d="M166.268 67.8145C201.6 65.7279 238.144 86.0722 252 96.5052V151.278C216.495 133.021 138.73 93.897 111.711 83.464C84.6928 73.031 25.9794 79.1169 1.52588e-05 83.464L59.7526 64.1125L80.5361 57.3815L49.3608 18.2578C69.7756 32.8976 113.639 59.4934 148.082 66.2901C154.549 67.5662 160.683 68.1443 166.268 67.8145Z" fill="#966B49"/>
<path d="M140.289 33.9072C154.837 44.3402 153.278 57.3814 150.681 62.5979C148.949 63.4674 143.926 64.6845 137.691 62.5979C129.897 59.9897 127.299 54.7732 122.103 44.3402C117.947 35.9938 118.639 26.9519 119.505 23.4742L140.289 33.9072Z" fill="#468B6C"/>
<path d="M85.7323 13.0412C94.0457 19.301 90.9281 31.299 88.3302 36.5155V39.1237C83.1343 37.3849 72.7426 32.3423 72.7426 26.0825V0C73.6086 1.73883 77.4189 6.78144 85.7323 13.0412Z" fill="#468B6C"/>
<path d="M72.7426 112.155C85.2127 105.895 84.8663 88.6804 83.1343 80.8557C54.557 73.0309 51.9591 91.2887 46.7632 96.5051C42.6065 100.678 45.0312 119.11 46.7632 127.804C50.2271 125.196 60.2725 118.414 72.7426 112.155Z" fill="#468B6C"/>
<path d="M192.248 156.495C210.953 154.408 215.629 139.976 215.629 133.021C207.835 130.412 190.689 125.718 184.454 127.804C176.66 130.412 168.866 164.32 174.062 161.711C178.219 159.625 187.918 157.364 192.248 156.495Z" fill="#468B6C"/>
<path d="M137.691 125.196C154.318 121.023 158.475 111.285 158.475 106.938C152.413 103.46 139.25 96.5051 135.093 96.5051C130.936 96.5051 121.237 119.11 116.908 130.412L137.691 125.196Z" fill="#468B6C"/>
</svg>
