<svg width="364" height="326" viewBox="0 0 364 326" fill="none" xmlns="http://www.w3.org/2000/svg">
<g opacity="0.75">
<path d="M269.484 21.6832C273.065 21.6832 275.969 18.7309 275.969 15.0891C275.969 11.4473 273.065 8.49506 269.484 8.49506C265.903 8.49506 263 11.4473 263 15.0891C263 18.7309 265.903 21.6832 269.484 21.6832Z" fill="#FFF7EC"/>
<path d="M285.583 14V6H288.38C288.937 6 289.397 6.09635 289.759 6.28906C290.121 6.47917 290.391 6.73568 290.568 7.05859C290.745 7.37891 290.833 7.73437 290.833 8.125C290.833 8.46875 290.772 8.7526 290.65 8.97656C290.53 9.20052 290.371 9.3776 290.173 9.50781C289.978 9.63802 289.766 9.73437 289.536 9.79687V9.875C289.781 9.89062 290.027 9.97656 290.275 10.1328C290.522 10.2891 290.729 10.513 290.896 10.8047C291.062 11.0964 291.146 11.4531 291.146 11.875C291.146 12.276 291.055 12.6367 290.872 12.957C290.69 13.2773 290.402 13.5312 290.009 13.7187C289.616 13.9062 289.104 14 288.474 14H285.583ZM286.552 13.1406H288.474C289.107 13.1406 289.556 13.0182 289.822 12.7734C290.09 12.526 290.224 12.2266 290.224 11.875C290.224 11.6042 290.155 11.3542 290.017 11.125C289.879 10.8932 289.682 10.7083 289.427 10.5703C289.172 10.4297 288.87 10.3594 288.521 10.3594H286.552V13.1406ZM286.552 9.51562H288.349C288.641 9.51562 288.904 9.45833 289.138 9.34375C289.375 9.22917 289.562 9.06771 289.7 8.85937C289.841 8.65104 289.911 8.40625 289.911 8.125C289.911 7.77344 289.789 7.47526 289.544 7.23047C289.299 6.98307 288.911 6.85937 288.38 6.85937H286.552V9.51562ZM292.613 14V8H293.503V8.90625H293.566C293.675 8.60938 293.873 8.36849 294.159 8.18359C294.446 7.9987 294.769 7.90625 295.128 7.90625C295.196 7.90625 295.281 7.90755 295.382 7.91016C295.484 7.91276 295.56 7.91667 295.613 7.92188V8.85937C295.581 8.85156 295.51 8.83984 295.398 8.82422C295.288 8.80599 295.172 8.79687 295.05 8.79687C294.758 8.79687 294.498 8.85807 294.269 8.98047C294.042 9.10026 293.863 9.26693 293.73 9.48047C293.6 9.69141 293.534 9.93229 293.534 10.2031V14H292.613ZM298.471 14.1406C298.091 14.1406 297.746 14.069 297.436 13.9258C297.126 13.7799 296.88 13.5703 296.698 13.2969C296.515 13.0208 296.424 12.6875 296.424 12.2969C296.424 11.9531 296.492 11.6745 296.627 11.4609C296.763 11.2448 296.944 11.0755 297.17 10.9531C297.397 10.8307 297.647 10.7396 297.92 10.6797C298.196 10.6172 298.474 10.5677 298.752 10.5313C299.117 10.4844 299.412 10.4492 299.639 10.4258C299.868 10.3997 300.035 10.3568 300.139 10.2969C300.246 10.237 300.299 10.1328 300.299 9.98437V9.95312C300.299 9.56771 300.194 9.26823 299.983 9.05469C299.774 8.84115 299.458 8.73437 299.033 8.73437C298.593 8.73437 298.248 8.83073 297.998 9.02344C297.748 9.21615 297.573 9.42187 297.471 9.64062L296.596 9.32812C296.752 8.96354 296.961 8.67969 297.221 8.47656C297.484 8.27083 297.77 8.1276 298.08 8.04687C298.393 7.96354 298.7 7.92188 299.002 7.92188C299.195 7.92188 299.416 7.94531 299.666 7.99219C299.919 8.03646 300.162 8.12891 300.397 8.26953C300.634 8.41016 300.83 8.6224 300.987 8.90625C301.143 9.1901 301.221 9.57031 301.221 10.0469V14H300.299V13.1875H300.252C300.19 13.3177 300.086 13.457 299.94 13.6055C299.794 13.7539 299.6 13.8802 299.358 13.9844C299.115 14.0885 298.82 14.1406 298.471 14.1406ZM298.612 13.3125C298.976 13.3125 299.283 13.2409 299.533 13.0977C299.786 12.9544 299.976 12.7695 300.104 12.543C300.234 12.3164 300.299 12.0781 300.299 11.8281V10.9844C300.26 11.0312 300.174 11.0742 300.041 11.1133C299.911 11.1497 299.76 11.1823 299.588 11.2109C299.419 11.237 299.253 11.2604 299.092 11.2812C298.933 11.2995 298.804 11.3151 298.705 11.3281C298.466 11.3594 298.242 11.4102 298.033 11.4805C297.828 11.5482 297.661 11.651 297.533 11.7891C297.408 11.9245 297.346 12.1094 297.346 12.3437C297.346 12.6641 297.464 12.9062 297.701 13.0703C297.941 13.2318 298.244 13.3125 298.612 13.3125ZM307.154 9.34375L306.325 9.57812C306.273 9.4401 306.197 9.30599 306.095 9.17578C305.996 9.04297 305.861 8.93359 305.689 8.84766C305.517 8.76172 305.297 8.71875 305.029 8.71875C304.661 8.71875 304.355 8.80339 304.111 8.97266C303.868 9.13932 303.747 9.35156 303.747 9.60937C303.747 9.83854 303.831 10.0195 303.997 10.1523C304.164 10.2852 304.424 10.3958 304.779 10.4844L305.669 10.7031C306.206 10.8333 306.605 11.0326 306.868 11.3008C307.131 11.5664 307.263 11.9089 307.263 12.3281C307.263 12.6719 307.164 12.9792 306.966 13.25C306.771 13.5208 306.497 13.7344 306.146 13.8906C305.794 14.0469 305.385 14.125 304.919 14.125C304.307 14.125 303.801 13.9922 303.4 13.7266C302.999 13.4609 302.745 13.0729 302.638 12.5625L303.513 12.3437C303.596 12.6667 303.754 12.9089 303.986 13.0703C304.22 13.2318 304.526 13.3125 304.904 13.3125C305.333 13.3125 305.674 13.2214 305.927 13.0391C306.182 12.8542 306.31 12.6328 306.31 12.375C306.31 12.1667 306.237 11.9922 306.091 11.8516C305.945 11.7083 305.721 11.6016 305.419 11.5312L304.419 11.2969C303.87 11.1667 303.466 10.9648 303.208 10.6914C302.953 10.4154 302.825 10.0703 302.825 9.65625C302.825 9.31771 302.92 9.01823 303.111 8.75781C303.303 8.4974 303.565 8.29297 303.896 8.14453C304.229 7.99609 304.607 7.92188 305.029 7.92188C305.622 7.92188 306.088 8.05208 306.427 8.3125C306.768 8.57292 307.01 8.91667 307.154 9.34375ZM308.651 14V8H309.573V14H308.651ZM309.119 7C308.94 7 308.785 6.9388 308.655 6.81641C308.527 6.69401 308.463 6.54688 308.463 6.375C308.463 6.20313 308.527 6.05599 308.655 5.93359C308.785 5.8112 308.94 5.75 309.119 5.75C309.299 5.75 309.453 5.8112 309.58 5.93359C309.711 6.05599 309.776 6.20313 309.776 6.375C309.776 6.54688 309.711 6.69401 309.58 6.81641C309.453 6.9388 309.299 7 309.119 7ZM312.183 6V14H311.261V6H312.183Z" fill="#333333"/>
</g>
<g opacity="0.75">
<path d="M269.484 43.6633C273.066 43.6633 275.969 40.7111 275.969 37.0693C275.969 33.4275 273.066 30.4752 269.484 30.4752C265.903 30.4752 263 33.4275 263 37.0693C263 40.7111 265.903 43.6633 269.484 43.6633Z" fill="#FEE8C8"/>
<path d="M286.552 27.9802V35.9802H285.583V27.9802H286.552ZM289.291 32.3708V35.9802H288.37V29.9802H289.26V30.9177H289.338C289.479 30.613 289.692 30.3682 289.979 30.1833C290.265 29.9958 290.635 29.9021 291.088 29.9021C291.495 29.9021 291.85 29.9854 292.155 30.1521C292.459 30.3162 292.696 30.5662 292.866 30.9021C293.035 31.2354 293.12 31.6573 293.12 32.1677V35.9802H292.198V32.2302C292.198 31.7589 292.075 31.3917 291.83 31.1287C291.586 30.863 291.25 30.7302 290.823 30.7302C290.528 30.7302 290.265 30.794 290.034 30.9216C289.804 31.0492 289.623 31.2354 289.491 31.4802C289.358 31.725 289.291 32.0219 289.291 32.3708ZM297.07 36.1052C296.57 36.1052 296.128 35.9789 295.745 35.7263C295.363 35.4711 295.063 35.1117 294.847 34.6482C294.631 34.182 294.523 33.6313 294.523 32.9958C294.523 32.3656 294.631 31.8188 294.847 31.3552C295.063 30.8917 295.364 30.5336 295.749 30.281C296.135 30.0284 296.58 29.9021 297.085 29.9021C297.476 29.9021 297.785 29.9672 298.011 30.0974C298.24 30.225 298.415 30.3708 298.535 30.5349C298.657 30.6964 298.752 30.8292 298.82 30.9333H298.898V27.9802H299.82V35.9802H298.929V35.0583H298.82C298.752 35.1677 298.656 35.3057 298.531 35.4724C298.406 35.6365 298.227 35.7836 297.995 35.9138C297.764 36.0414 297.455 36.1052 297.07 36.1052ZM297.195 35.2771C297.564 35.2771 297.877 35.1807 298.132 34.988C298.387 34.7927 298.581 34.5232 298.714 34.1794C298.847 33.8331 298.913 33.4333 298.913 32.9802C298.913 32.5323 298.848 32.1404 298.718 31.8044C298.588 31.4659 298.395 31.2029 298.14 31.0154C297.885 30.8253 297.57 30.7302 297.195 30.7302C296.804 30.7302 296.479 30.8305 296.218 31.031C295.96 31.2289 295.766 31.4985 295.636 31.8396C295.509 32.1781 295.445 32.5583 295.445 32.9802C295.445 33.4073 295.51 33.7953 295.64 34.1443C295.773 34.4906 295.968 34.7667 296.226 34.9724C296.486 35.1755 296.809 35.2771 297.195 35.2771ZM304.074 36.1052C303.532 36.1052 303.057 35.9763 302.648 35.7185C302.242 35.4607 301.924 35.1 301.695 34.6365C301.468 34.1729 301.355 33.6313 301.355 33.0115C301.355 32.3865 301.468 31.8409 301.695 31.3748C301.924 30.9086 302.242 30.5466 302.648 30.2888C303.057 30.031 303.532 29.9021 304.074 29.9021C304.615 29.9021 305.089 30.031 305.495 30.2888C305.904 30.5466 306.222 30.9086 306.449 31.3748C306.678 31.8409 306.792 32.3865 306.792 33.0115C306.792 33.6313 306.678 34.1729 306.449 34.6365C306.222 35.1 305.904 35.4607 305.495 35.7185C305.089 35.9763 304.615 36.1052 304.074 36.1052ZM304.074 35.2771C304.485 35.2771 304.824 35.1716 305.089 34.9607C305.355 34.7498 305.551 34.4724 305.679 34.1287C305.807 33.7849 305.87 33.4125 305.87 33.0115C305.87 32.6104 305.807 32.2367 305.679 31.8904C305.551 31.544 305.355 31.2641 305.089 31.0505C304.824 30.837 304.485 30.7302 304.074 30.7302C303.662 30.7302 303.324 30.837 303.058 31.0505C302.792 31.2641 302.596 31.544 302.468 31.8904C302.341 32.2367 302.277 32.6104 302.277 33.0115C302.277 33.4125 302.341 33.7849 302.468 34.1287C302.596 34.4724 302.792 34.7498 303.058 34.9607C303.324 35.1716 303.662 35.2771 304.074 35.2771ZM309.121 32.3708V35.9802H308.2V29.9802H309.09V30.9177H309.168C309.309 30.613 309.523 30.3682 309.809 30.1833C310.095 29.9958 310.465 29.9021 310.918 29.9021C311.325 29.9021 311.68 29.9854 311.985 30.1521C312.289 30.3162 312.526 30.5662 312.696 30.9021C312.865 31.2354 312.95 31.6573 312.95 32.1677V35.9802H312.028V32.2302C312.028 31.7589 311.905 31.3917 311.661 31.1287C311.416 30.863 311.08 30.7302 310.653 30.7302C310.358 30.7302 310.095 30.794 309.864 30.9216C309.634 31.0492 309.453 31.2354 309.321 31.4802C309.188 31.725 309.121 32.0219 309.121 32.3708ZM317.15 36.1052C316.572 36.1052 316.073 35.9776 315.654 35.7224C315.237 35.4646 314.915 35.1052 314.689 34.6443C314.465 34.1807 314.353 33.6417 314.353 33.0271C314.353 32.4125 314.465 31.8708 314.689 31.4021C314.915 30.9307 315.231 30.5636 315.634 30.3005C316.04 30.0349 316.514 29.9021 317.056 29.9021C317.369 29.9021 317.677 29.9542 317.982 30.0583C318.286 30.1625 318.564 30.3318 318.814 30.5662C319.064 30.7979 319.263 31.1052 319.411 31.488C319.56 31.8708 319.634 32.3422 319.634 32.9021V33.2927H315.009V32.4958H318.697C318.697 32.1573 318.629 31.8552 318.494 31.5896C318.361 31.324 318.171 31.1143 317.923 30.9607C317.678 30.807 317.389 30.7302 317.056 30.7302C316.689 30.7302 316.371 30.8214 316.103 31.0037C315.837 31.1833 315.633 31.4177 315.49 31.7068C315.346 31.9958 315.275 32.3057 315.275 32.6365V33.1677C315.275 33.6208 315.353 34.005 315.509 34.3201C315.668 34.6326 315.888 34.8708 316.169 35.0349C316.451 35.1964 316.777 35.2771 317.15 35.2771C317.392 35.2771 317.611 35.2432 317.806 35.1755C318.004 35.1052 318.175 35.0011 318.318 34.863C318.461 34.7224 318.572 34.5479 318.65 34.3396L319.54 34.5896C319.447 34.8917 319.289 35.1573 319.068 35.3865C318.846 35.613 318.573 35.7901 318.247 35.9177C317.922 36.0427 317.556 36.1052 317.15 36.1052ZM325.286 31.324L324.458 31.5583C324.406 31.4203 324.329 31.2862 324.228 31.156C324.129 31.0232 323.994 30.9138 323.822 30.8279C323.65 30.7419 323.43 30.699 323.161 30.699C322.794 30.699 322.488 30.7836 322.244 30.9529C322.001 31.1195 321.88 31.3318 321.88 31.5896C321.88 31.8188 321.964 31.9998 322.13 32.1326C322.297 32.2654 322.557 32.3761 322.911 32.4646L323.802 32.6833C324.339 32.8136 324.738 33.0128 325.001 33.281C325.264 33.5466 325.396 33.8891 325.396 34.3083C325.396 34.6521 325.297 34.9594 325.099 35.2302C324.904 35.5011 324.63 35.7146 324.279 35.8708C323.927 36.0271 323.518 36.1052 323.052 36.1052C322.44 36.1052 321.934 35.9724 321.533 35.7068C321.132 35.4412 320.878 35.0531 320.771 34.5427L321.646 34.324C321.729 34.6469 321.887 34.8891 322.119 35.0505C322.353 35.212 322.659 35.2927 323.036 35.2927C323.466 35.2927 323.807 35.2016 324.06 35.0193C324.315 34.8344 324.443 34.613 324.443 34.3552C324.443 34.1469 324.37 33.9724 324.224 33.8318C324.078 33.6886 323.854 33.5818 323.552 33.5115L322.552 33.2771C322.003 33.1469 321.599 32.9451 321.341 32.6716C321.086 32.3956 320.958 32.0505 320.958 31.6365C320.958 31.2979 321.053 30.9985 321.244 30.738C321.436 30.4776 321.698 30.2732 322.029 30.1248C322.362 29.9763 322.74 29.9021 323.161 29.9021C323.755 29.9021 324.221 30.0323 324.56 30.2927C324.901 30.5531 325.143 30.8969 325.286 31.324ZM326.784 35.9802V29.9802H327.705V35.9802H326.784ZM327.252 28.9802C327.073 28.9802 326.918 28.919 326.787 28.7966C326.66 28.6742 326.596 28.5271 326.596 28.3552C326.596 28.1833 326.66 28.0362 326.787 27.9138C326.918 27.7914 327.073 27.7302 327.252 27.7302C327.432 27.7302 327.586 27.7914 327.713 27.9138C327.843 28.0362 327.909 28.1833 327.909 28.3552C327.909 28.5271 327.843 28.6742 327.713 28.7966C327.586 28.919 327.432 28.9802 327.252 28.9802ZM331.16 36.1208C330.779 36.1208 330.434 36.0492 330.124 35.906C329.814 35.7602 329.568 35.5505 329.386 35.2771C329.204 35.0011 329.113 34.6677 329.113 34.2771C329.113 33.9333 329.18 33.6547 329.316 33.4412C329.451 33.225 329.632 33.0557 329.859 32.9333C330.085 32.811 330.335 32.7198 330.609 32.6599C330.885 32.5974 331.162 32.5479 331.441 32.5115C331.805 32.4646 332.101 32.4294 332.328 32.406C332.557 32.38 332.723 32.337 332.828 32.2771C332.934 32.2172 332.988 32.113 332.988 31.9646V31.9333C332.988 31.5479 332.882 31.2485 332.671 31.0349C332.463 30.8214 332.147 30.7146 331.722 30.7146C331.282 30.7146 330.937 30.811 330.687 31.0037C330.437 31.1964 330.261 31.4021 330.16 31.6208L329.285 31.3083C329.441 30.9438 329.649 30.6599 329.91 30.4568C330.173 30.2511 330.459 30.1078 330.769 30.0271C331.081 29.9438 331.389 29.9021 331.691 29.9021C331.884 29.9021 332.105 29.9255 332.355 29.9724C332.607 30.0167 332.851 30.1091 333.085 30.2498C333.322 30.3904 333.519 30.6026 333.675 30.8865C333.831 31.1703 333.91 31.5505 333.91 32.0271V35.9802H332.988V35.1677H332.941C332.878 35.2979 332.774 35.4373 332.628 35.5857C332.482 35.7341 332.288 35.8604 332.046 35.9646C331.804 36.0688 331.509 36.1208 331.16 36.1208ZM331.3 35.2927C331.665 35.2927 331.972 35.2211 332.222 35.0779C332.475 34.9347 332.665 34.7498 332.792 34.5232C332.923 34.2966 332.988 34.0583 332.988 33.8083V32.9646C332.949 33.0115 332.863 33.0544 332.73 33.0935C332.6 33.13 332.449 33.1625 332.277 33.1912C332.107 33.2172 331.942 33.2406 331.781 33.2615C331.622 33.2797 331.493 33.2953 331.394 33.3083C331.154 33.3396 330.93 33.3904 330.722 33.4607C330.516 33.5284 330.35 33.6313 330.222 33.7693C330.097 33.9047 330.035 34.0896 330.035 34.324C330.035 34.6443 330.153 34.8865 330.39 35.0505C330.63 35.212 330.933 35.2927 331.3 35.2927Z" fill="#333333"/>
</g>
<g opacity="0.75">
<path d="M269.484 65.6436C273.066 65.6436 275.969 62.6913 275.969 59.0495C275.969 55.4077 273.066 52.4554 269.484 52.4554C265.903 52.4554 263 55.4077 263 59.0495C263 62.6913 265.903 65.6436 269.484 65.6436Z" fill="#FDD49E"/>
<path d="M285.583 57.9604V49.9604H286.552V53.9291H286.646L290.24 49.9604H291.505L288.146 53.5698L291.505 57.9604H290.333L287.552 54.2416L286.552 55.3666V57.9604H285.583ZM294.631 58.0854C294.09 58.0854 293.614 57.9565 293.205 57.6987C292.799 57.4409 292.481 57.0802 292.252 56.6166C292.026 56.1531 291.912 55.6114 291.912 54.9916C291.912 54.3666 292.026 53.8211 292.252 53.3549C292.481 52.8888 292.799 52.5268 293.205 52.269C293.614 52.0112 294.09 51.8823 294.631 51.8823C295.173 51.8823 295.647 52.0112 296.053 52.269C296.462 52.5268 296.78 52.8888 297.006 53.3549C297.235 53.8211 297.35 54.3666 297.35 54.9916C297.35 55.6114 297.235 56.1531 297.006 56.6166C296.78 57.0802 296.462 57.4409 296.053 57.6987C295.647 57.9565 295.173 58.0854 294.631 58.0854ZM294.631 57.2573C295.043 57.2573 295.381 57.1518 295.647 56.9409C295.912 56.7299 296.109 56.4526 296.237 56.1088C296.364 55.7651 296.428 55.3927 296.428 54.9916C296.428 54.5906 296.364 54.2169 296.237 53.8705C296.109 53.5242 295.912 53.2442 295.647 53.0307C295.381 52.8172 295.043 52.7104 294.631 52.7104C294.22 52.7104 293.881 52.8172 293.616 53.0307C293.35 53.2442 293.153 53.5242 293.026 53.8705C292.898 54.2169 292.834 54.5906 292.834 54.9916C292.834 55.3927 292.898 55.7651 293.026 56.1088C293.153 56.4526 293.35 56.7299 293.616 56.9409C293.881 57.1518 294.22 57.2573 294.631 57.2573ZM299.679 54.351V57.9604H298.757V51.9604H299.648V52.8979H299.726C299.867 52.5932 300.08 52.3484 300.367 52.1635C300.653 51.976 301.023 51.8823 301.476 51.8823C301.882 51.8823 302.238 51.9656 302.542 52.1323C302.847 52.2963 303.084 52.5463 303.253 52.8823C303.423 53.2156 303.507 53.6375 303.507 54.1479V57.9604H302.585V54.2104C302.585 53.739 302.463 53.3718 302.218 53.1088C301.973 52.8432 301.637 52.7104 301.21 52.7104C300.916 52.7104 300.653 52.7742 300.421 52.9018C300.192 53.0294 300.011 53.2156 299.878 53.4604C299.745 53.7052 299.679 54.0021 299.679 54.351ZM307.614 60.3354C307.168 60.3354 306.786 60.2781 306.465 60.1635C306.145 60.0515 305.878 59.9031 305.664 59.7182C305.453 59.5359 305.286 59.3406 305.161 59.1323L305.895 58.6166C305.978 58.726 306.084 58.851 306.211 58.9916C306.339 59.1349 306.513 59.2586 306.735 59.3627C306.959 59.4695 307.252 59.5229 307.614 59.5229C308.098 59.5229 308.498 59.4057 308.813 59.1713C309.128 58.937 309.286 58.5698 309.286 58.0698V56.851H309.207C309.14 56.9604 309.043 57.0958 308.918 57.2573C308.796 57.4161 308.619 57.558 308.387 57.683C308.158 57.8054 307.848 57.8666 307.457 57.8666C306.973 57.8666 306.538 57.7521 306.153 57.5229C305.77 57.2937 305.467 56.9604 305.243 56.5229C305.021 56.0854 304.911 55.5541 304.911 54.9291C304.911 54.3146 305.019 53.7794 305.235 53.3237C305.451 52.8653 305.752 52.5112 306.137 52.2612C306.523 52.0086 306.968 51.8823 307.473 51.8823C307.864 51.8823 308.174 51.9474 308.403 52.0776C308.634 52.2052 308.812 52.351 308.934 52.5151C309.059 52.6765 309.155 52.8093 309.223 52.9135H309.317V51.9604H310.207V58.1323C310.207 58.6479 310.09 59.0672 309.856 59.3901C309.624 59.7156 309.312 59.9539 308.918 60.1049C308.528 60.2586 308.093 60.3354 307.614 60.3354ZM307.582 57.0385C307.952 57.0385 308.265 56.9539 308.52 56.7846C308.775 56.6153 308.969 56.3718 309.102 56.0541C309.235 55.7364 309.301 55.3562 309.301 54.9135C309.301 54.4812 309.236 54.0997 309.106 53.769C308.976 53.4383 308.783 53.1791 308.528 52.9916C308.273 52.8041 307.957 52.7104 307.582 52.7104C307.192 52.7104 306.866 52.8093 306.606 53.0073C306.348 53.2052 306.154 53.4708 306.024 53.8041C305.896 54.1375 305.832 54.5073 305.832 54.9135C305.832 55.3302 305.898 55.6987 306.028 56.019C306.161 56.3367 306.356 56.5867 306.614 56.769C306.874 56.9487 307.197 57.0385 307.582 57.0385ZM314.332 58.0854C313.791 58.0854 313.315 57.9565 312.907 57.6987C312.5 57.4409 312.183 57.0802 311.953 56.6166C311.727 56.1531 311.614 55.6114 311.614 54.9916C311.614 54.3666 311.727 53.8211 311.953 53.3549C312.183 52.8888 312.5 52.5268 312.907 52.269C313.315 52.0112 313.791 51.8823 314.332 51.8823C314.874 51.8823 315.348 52.0112 315.754 52.269C316.163 52.5268 316.481 52.8888 316.707 53.3549C316.937 53.8211 317.051 54.3666 317.051 54.9916C317.051 55.6114 316.937 56.1531 316.707 56.6166C316.481 57.0802 316.163 57.4409 315.754 57.6987C315.348 57.9565 314.874 58.0854 314.332 58.0854ZM314.332 57.2573C314.744 57.2573 315.082 57.1518 315.348 56.9409C315.614 56.7299 315.81 56.4526 315.938 56.1088C316.065 55.7651 316.129 55.3927 316.129 54.9916C316.129 54.5906 316.065 54.2169 315.938 53.8705C315.81 53.5242 315.614 53.2442 315.348 53.0307C315.082 52.8172 314.744 52.7104 314.332 52.7104C313.921 52.7104 313.582 52.8172 313.317 53.0307C313.051 53.2442 312.855 53.5242 312.727 53.8705C312.599 54.2169 312.536 54.5906 312.536 54.9916C312.536 55.3927 312.599 55.7651 312.727 56.1088C312.855 56.4526 313.051 56.7299 313.317 56.9409C313.582 57.1518 313.921 57.2573 314.332 57.2573Z" fill="#333333"/>
</g>
<g opacity="0.75">
<path d="M269.484 87.6238C273.066 87.6238 275.969 84.6716 275.969 81.0298C275.969 77.388 273.066 74.4357 269.484 74.4357C265.903 74.4357 263 77.388 263 81.0298C263 84.6716 265.903 87.6238 269.484 87.6238Z" fill="#FDBB84"/>
<path d="M285.583 71.9406H286.74L289.458 78.5812H289.552L292.271 71.9406H293.427V79.9406H292.521V73.8625H292.443L289.943 79.9406H289.068L286.568 73.8625H286.49V79.9406H285.583V71.9406ZM297.01 80.0812C296.63 80.0812 296.285 80.0096 295.975 79.8664C295.665 79.7206 295.419 79.5109 295.237 79.2375C295.054 78.9614 294.963 78.6281 294.963 78.2375C294.963 77.8937 295.031 77.6151 295.166 77.4016C295.302 77.1854 295.483 77.0161 295.709 76.8937C295.936 76.7713 296.186 76.6802 296.459 76.6203C296.735 76.5578 297.013 76.5083 297.291 76.4719C297.656 76.425 297.952 76.3898 298.178 76.3664C298.407 76.3404 298.574 76.2974 298.678 76.2375C298.785 76.1776 298.838 76.0734 298.838 75.925V75.8937C298.838 75.5083 298.733 75.2088 298.522 74.9953C298.314 74.7818 297.997 74.675 297.573 74.675C297.133 74.675 296.787 74.7713 296.537 74.9641C296.287 75.1568 296.112 75.3625 296.01 75.5812L295.135 75.2687C295.291 74.9042 295.5 74.6203 295.76 74.4172C296.023 74.2114 296.31 74.0682 296.62 73.9875C296.932 73.9042 297.239 73.8625 297.541 73.8625C297.734 73.8625 297.955 73.8859 298.205 73.9328C298.458 73.9771 298.702 74.0695 298.936 74.2101C299.173 74.3508 299.37 74.563 299.526 74.8469C299.682 75.1307 299.76 75.5109 299.76 75.9875V79.9406H298.838V79.1281H298.791C298.729 79.2583 298.625 79.3976 298.479 79.5461C298.333 79.6945 298.139 79.8208 297.897 79.925C297.655 80.0292 297.359 80.0812 297.01 80.0812ZM297.151 79.2531C297.515 79.2531 297.823 79.1815 298.073 79.0383C298.325 78.895 298.515 78.7101 298.643 78.4836C298.773 78.257 298.838 78.0187 298.838 77.7687V76.925C298.799 76.9719 298.713 77.0148 298.58 77.0539C298.45 77.0904 298.299 77.1229 298.127 77.1516C297.958 77.1776 297.793 77.201 297.631 77.2219C297.472 77.2401 297.343 77.2557 297.245 77.2687C297.005 77.3 296.781 77.3508 296.573 77.4211C296.367 77.4888 296.2 77.5917 296.073 77.7297C295.948 77.8651 295.885 78.05 295.885 78.2844C295.885 78.6047 296.004 78.8469 296.241 79.0109C296.48 79.1724 296.784 79.2531 297.151 79.2531ZM302.365 71.9406V79.9406H301.443V71.9406H302.365ZM305.819 80.0812C305.439 80.0812 305.093 80.0096 304.784 79.8664C304.474 79.7206 304.228 79.5109 304.045 79.2375C303.863 78.9614 303.772 78.6281 303.772 78.2375C303.772 77.8937 303.84 77.6151 303.975 77.4016C304.11 77.1854 304.291 77.0161 304.518 76.8937C304.745 76.7713 304.995 76.6802 305.268 76.6203C305.544 76.5578 305.821 76.5083 306.1 76.4719C306.465 76.425 306.76 76.3898 306.987 76.3664C307.216 76.3404 307.383 76.2974 307.487 76.2375C307.593 76.1776 307.647 76.0734 307.647 75.925V75.8937C307.647 75.5083 307.541 75.2088 307.33 74.9953C307.122 74.7818 306.806 74.675 306.381 74.675C305.941 74.675 305.596 74.7713 305.346 74.9641C305.096 75.1568 304.92 75.3625 304.819 75.5812L303.944 75.2687C304.1 74.9042 304.308 74.6203 304.569 74.4172C304.832 74.2114 305.118 74.0682 305.428 73.9875C305.741 73.9042 306.048 73.8625 306.35 73.8625C306.543 73.8625 306.764 73.8859 307.014 73.9328C307.267 73.9771 307.51 74.0695 307.745 74.2101C307.981 74.3508 308.178 74.563 308.334 74.8469C308.491 75.1307 308.569 75.5109 308.569 75.9875V79.9406H307.647V79.1281H307.6C307.537 79.2583 307.433 79.3976 307.287 79.5461C307.142 79.6945 306.948 79.8208 306.705 79.925C306.463 80.0292 306.168 80.0812 305.819 80.0812ZM305.959 79.2531C306.324 79.2531 306.631 79.1815 306.881 79.0383C307.134 78.895 307.324 78.7101 307.452 78.4836C307.582 78.257 307.647 78.0187 307.647 77.7687V76.925C307.608 76.9719 307.522 77.0148 307.389 77.0539C307.259 77.0904 307.108 77.1229 306.936 77.1516C306.767 77.1776 306.601 77.201 306.44 77.2219C306.281 77.2401 306.152 77.2557 306.053 77.2687C305.814 77.3 305.59 77.3508 305.381 77.4211C305.175 77.4888 305.009 77.5917 304.881 77.7297C304.756 77.8651 304.694 78.05 304.694 78.2844C304.694 78.6047 304.812 78.8469 305.049 79.0109C305.289 79.1724 305.592 79.2531 305.959 79.2531ZM310.63 82.1906C310.474 82.1906 310.335 82.1776 310.212 82.1516C310.09 82.1281 310.005 82.1047 309.958 82.0812L310.193 81.2687C310.417 81.326 310.615 81.3469 310.786 81.3312C310.958 81.3156 311.111 81.2388 311.244 81.1008C311.379 80.9654 311.503 80.7453 311.615 80.4406L311.786 79.9719L309.568 73.9406H310.568L312.224 78.7219H312.286L313.943 73.9406H314.943L312.396 80.8156C312.281 81.1255 312.139 81.382 311.97 81.5851C311.801 81.7909 311.604 81.9432 311.38 82.0422C311.159 82.1411 310.909 82.1906 310.63 82.1906ZM320.41 75.2844L319.581 75.5187C319.529 75.3807 319.453 75.2466 319.351 75.1164C319.252 74.9836 319.117 74.8742 318.945 74.7883C318.773 74.7023 318.553 74.6594 318.285 74.6594C317.917 74.6594 317.611 74.744 317.367 74.9133C317.124 75.0799 317.003 75.2922 317.003 75.55C317.003 75.7792 317.087 75.9601 317.253 76.093C317.42 76.2258 317.68 76.3364 318.035 76.425L318.925 76.6437C319.462 76.7739 319.861 76.9732 320.124 77.2414C320.387 77.507 320.519 77.8495 320.519 78.2687C320.519 78.6125 320.42 78.9198 320.222 79.1906C320.027 79.4614 319.753 79.675 319.402 79.8312C319.05 79.9875 318.641 80.0656 318.175 80.0656C317.563 80.0656 317.057 79.9328 316.656 79.6672C316.255 79.4016 316.001 79.0135 315.894 78.5031L316.769 78.2844C316.852 78.6073 317.01 78.8495 317.242 79.0109C317.476 79.1724 317.782 79.2531 318.16 79.2531C318.589 79.2531 318.93 79.162 319.183 78.9797C319.438 78.7948 319.566 78.5734 319.566 78.3156C319.566 78.1073 319.493 77.9328 319.347 77.7922C319.201 77.6489 318.977 77.5422 318.675 77.4719L317.675 77.2375C317.126 77.1073 316.722 76.9055 316.464 76.632C316.209 76.356 316.081 76.0109 316.081 75.5969C316.081 75.2583 316.176 74.9588 316.367 74.6984C316.559 74.438 316.821 74.2336 317.152 74.0851C317.485 73.9367 317.863 73.8625 318.285 73.8625C318.878 73.8625 319.344 73.9927 319.683 74.2531C320.024 74.5135 320.266 74.8573 320.41 75.2844ZM321.907 79.9406V73.9406H322.828V79.9406H321.907ZM322.375 72.9406C322.196 72.9406 322.041 72.8794 321.911 72.757C321.783 72.6346 321.719 72.4875 321.719 72.3156C321.719 72.1437 321.783 71.9966 321.911 71.8742C322.041 71.7518 322.196 71.6906 322.375 71.6906C322.555 71.6906 322.709 71.7518 322.836 71.8742C322.967 71.9966 323.032 72.1437 323.032 72.3156C323.032 72.4875 322.967 72.6346 322.836 72.757C322.709 72.8794 322.555 72.9406 322.375 72.9406ZM326.283 80.0812C325.902 80.0812 325.557 80.0096 325.247 79.8664C324.938 79.7206 324.691 79.5109 324.509 79.2375C324.327 78.9614 324.236 78.6281 324.236 78.2375C324.236 77.8937 324.303 77.6151 324.439 77.4016C324.574 77.1854 324.755 77.0161 324.982 76.8937C325.208 76.7713 325.458 76.6802 325.732 76.6203C326.008 76.5578 326.285 76.5083 326.564 76.4719C326.928 76.425 327.224 76.3898 327.451 76.3664C327.68 76.3404 327.846 76.2974 327.951 76.2375C328.057 76.1776 328.111 76.0734 328.111 75.925V75.8937C328.111 75.5083 328.005 75.2088 327.794 74.9953C327.586 74.7818 327.27 74.675 326.845 74.675C326.405 74.675 326.06 74.7713 325.81 74.9641C325.56 75.1568 325.384 75.3625 325.283 75.5812L324.408 75.2687C324.564 74.9042 324.772 74.6203 325.033 74.4172C325.296 74.2114 325.582 74.0682 325.892 73.9875C326.204 73.9042 326.512 73.8625 326.814 73.8625C327.007 73.8625 327.228 73.8859 327.478 73.9328C327.731 73.9771 327.974 74.0695 328.208 74.2101C328.445 74.3508 328.642 74.563 328.798 74.8469C328.954 75.1307 329.033 75.5109 329.033 75.9875V79.9406H328.111V79.1281H328.064C328.001 79.2583 327.897 79.3976 327.751 79.5461C327.606 79.6945 327.411 79.8208 327.169 79.925C326.927 80.0292 326.632 80.0812 326.283 80.0812ZM326.423 79.2531C326.788 79.2531 327.095 79.1815 327.345 79.0383C327.598 78.895 327.788 78.7101 327.915 78.4836C328.046 78.257 328.111 78.0187 328.111 77.7687V76.925C328.072 76.9719 327.986 77.0148 327.853 77.0539C327.723 77.0904 327.572 77.1229 327.4 77.1516C327.231 77.1776 327.065 77.201 326.904 77.2219C326.745 77.2401 326.616 77.2557 326.517 77.2687C326.277 77.3 326.053 77.3508 325.845 77.4211C325.639 77.4888 325.473 77.5917 325.345 77.7297C325.22 77.8651 325.158 78.05 325.158 78.2844C325.158 78.6047 325.276 78.8469 325.513 79.0109C325.753 79.1724 326.056 79.2531 326.423 79.2531Z" fill="#333333"/>
</g>
<g opacity="0.75">
<path d="M269.484 109.604C273.066 109.604 275.969 106.652 275.969 103.01C275.969 99.3682 273.066 96.4159 269.484 96.4159C265.903 96.4159 263 99.3682 263 103.01C263 106.652 265.903 109.604 269.484 109.604Z" fill="#FC8D59"/>
<path d="M285.146 94.7802V93.9208H291.146V94.7802H288.63V101.921H287.661V94.7802H285.146ZM293.465 102.061C293.085 102.061 292.74 101.99 292.43 101.847C292.12 101.701 291.874 101.491 291.692 101.218C291.509 100.942 291.418 100.608 291.418 100.218C291.418 99.8739 291.486 99.5953 291.621 99.3817C291.757 99.1656 291.938 98.9963 292.164 98.8739C292.391 98.7515 292.641 98.6604 292.914 98.6005C293.19 98.538 293.468 98.4885 293.746 98.452C294.111 98.4052 294.407 98.37 294.633 98.3466C294.862 98.3205 295.029 98.2775 295.133 98.2177C295.24 98.1578 295.293 98.0536 295.293 97.9052V97.8739C295.293 97.4885 295.188 97.189 294.977 96.9755C294.769 96.7619 294.452 96.6552 294.028 96.6552C293.588 96.6552 293.243 96.7515 292.993 96.9442C292.743 97.1369 292.567 97.3427 292.465 97.5614L291.59 97.2489C291.746 96.8843 291.955 96.6005 292.215 96.3973C292.478 96.1916 292.765 96.0484 293.075 95.9677C293.387 95.8843 293.694 95.8427 293.996 95.8427C294.189 95.8427 294.411 95.8661 294.661 95.913C294.913 95.9572 295.157 96.0497 295.391 96.1903C295.628 96.3309 295.825 96.5432 295.981 96.827C296.137 97.1109 296.215 97.4911 296.215 97.9677V101.921H295.293V101.108H295.246C295.184 101.238 295.08 101.378 294.934 101.526C294.788 101.675 294.594 101.801 294.352 101.905C294.11 102.009 293.814 102.061 293.465 102.061ZM293.606 101.233C293.97 101.233 294.278 101.162 294.528 101.018C294.78 100.875 294.97 100.69 295.098 100.464C295.228 100.237 295.293 99.9989 295.293 99.7489V98.9052C295.254 98.952 295.168 98.995 295.036 99.0341C294.905 99.0705 294.754 99.1031 294.582 99.1317C294.413 99.1578 294.248 99.1812 294.086 99.202C293.927 99.2203 293.799 99.2359 293.7 99.2489C293.46 99.2802 293.236 99.3309 293.028 99.4012C292.822 99.469 292.655 99.5718 292.528 99.7098C292.403 99.8453 292.34 100.03 292.34 100.265C292.34 100.585 292.459 100.827 292.696 100.991C292.935 101.153 293.239 101.233 293.606 101.233ZM298.82 98.3114V101.921H297.898V95.9208H298.788V96.8583H298.867C299.007 96.5536 299.221 96.3088 299.507 96.1239C299.794 95.9364 300.163 95.8427 300.617 95.8427C301.023 95.8427 301.378 95.926 301.683 96.0927C301.988 96.2567 302.225 96.5067 302.394 96.8427C302.563 97.176 302.648 97.5979 302.648 98.1083V101.921H301.726V98.1708C301.726 97.6994 301.604 97.3322 301.359 97.0692C301.114 96.8036 300.778 96.6708 300.351 96.6708C300.057 96.6708 299.794 96.7346 299.562 96.8622C299.333 96.9898 299.152 97.176 299.019 97.4208C298.886 97.6656 298.82 97.9624 298.82 98.3114ZM304.161 101.921V101.218L307.567 96.8427V96.7802H304.27V95.9208H308.754V96.6552L305.442 100.999V101.061H308.864V101.921H304.161ZM312.049 102.061C311.669 102.061 311.324 101.99 311.014 101.847C310.704 101.701 310.458 101.491 310.276 101.218C310.093 100.942 310.002 100.608 310.002 100.218C310.002 99.8739 310.07 99.5953 310.205 99.3817C310.341 99.1656 310.522 98.9963 310.748 98.8739C310.975 98.7515 311.225 98.6604 311.498 98.6005C311.774 98.538 312.052 98.4885 312.33 98.452C312.695 98.4052 312.991 98.37 313.217 98.3466C313.446 98.3205 313.613 98.2775 313.717 98.2177C313.824 98.1578 313.877 98.0536 313.877 97.9052V97.8739C313.877 97.4885 313.772 97.189 313.561 96.9755C313.353 96.7619 313.036 96.6552 312.612 96.6552C312.172 96.6552 311.827 96.7515 311.577 96.9442C311.327 97.1369 311.151 97.3427 311.049 97.5614L310.174 97.2489C310.33 96.8843 310.539 96.6005 310.799 96.3973C311.062 96.1916 311.349 96.0484 311.659 95.9677C311.971 95.8843 312.278 95.8427 312.58 95.8427C312.773 95.8427 312.995 95.8661 313.245 95.913C313.497 95.9572 313.741 96.0497 313.975 96.1903C314.212 96.3309 314.409 96.5432 314.565 96.827C314.721 97.1109 314.799 97.4911 314.799 97.9677V101.921H313.877V101.108H313.83C313.768 101.238 313.664 101.378 313.518 101.526C313.372 101.675 313.178 101.801 312.936 101.905C312.694 102.009 312.398 102.061 312.049 102.061ZM312.19 101.233C312.554 101.233 312.862 101.162 313.112 101.018C313.364 100.875 313.554 100.69 313.682 100.464C313.812 100.237 313.877 99.9989 313.877 99.7489V98.9052C313.838 98.952 313.752 98.995 313.62 99.0341C313.489 99.0705 313.338 99.1031 313.166 99.1317C312.997 99.1578 312.832 99.1812 312.67 99.202C312.511 99.2203 312.383 99.2359 312.284 99.2489C312.044 99.2802 311.82 99.3309 311.612 99.4012C311.406 99.469 311.239 99.5718 311.112 99.7098C310.987 99.8453 310.924 100.03 310.924 100.265C310.924 100.585 311.043 100.827 311.28 100.991C311.519 101.153 311.823 101.233 312.19 101.233ZM317.404 98.3114V101.921H316.482V95.9208H317.372V96.8583H317.451C317.591 96.5536 317.805 96.3088 318.091 96.1239C318.378 95.9364 318.747 95.8427 319.201 95.8427C319.607 95.8427 319.962 95.926 320.267 96.0927C320.572 96.2567 320.809 96.5067 320.978 96.8427C321.147 97.176 321.232 97.5979 321.232 98.1083V101.921H320.31V98.1708C320.31 97.6994 320.188 97.3322 319.943 97.0692C319.698 96.8036 319.362 96.6708 318.935 96.6708C318.641 96.6708 318.378 96.7346 318.146 96.8622C317.917 96.9898 317.736 97.176 317.603 97.4208C317.47 97.6656 317.404 97.9624 317.404 98.3114ZM322.916 101.921V95.9208H323.838V101.921H322.916ZM323.385 94.9208C323.205 94.9208 323.05 94.8596 322.92 94.7372C322.793 94.6148 322.729 94.4677 322.729 94.2958C322.729 94.1239 322.793 93.9768 322.92 93.8544C323.05 93.732 323.205 93.6708 323.385 93.6708C323.565 93.6708 323.718 93.732 323.846 93.8544C323.976 93.9768 324.041 94.1239 324.041 94.2958C324.041 94.4677 323.976 94.6148 323.846 94.7372C323.718 94.8596 323.565 94.9208 323.385 94.9208ZM327.292 102.061C326.912 102.061 326.567 101.99 326.257 101.847C325.947 101.701 325.701 101.491 325.519 101.218C325.337 100.942 325.245 100.608 325.245 100.218C325.245 99.8739 325.313 99.5953 325.449 99.3817C325.584 99.1656 325.765 98.9963 325.992 98.8739C326.218 98.7515 326.468 98.6604 326.742 98.6005C327.018 98.538 327.295 98.4885 327.574 98.452C327.938 98.4052 328.234 98.37 328.46 98.3466C328.689 98.3205 328.856 98.2775 328.96 98.2177C329.067 98.1578 329.12 98.0536 329.12 97.9052V97.8739C329.12 97.4885 329.015 97.189 328.804 96.9755C328.596 96.7619 328.279 96.6552 327.855 96.6552C327.415 96.6552 327.07 96.7515 326.82 96.9442C326.57 97.1369 326.394 97.3427 326.292 97.5614L325.417 97.2489C325.574 96.8843 325.782 96.6005 326.042 96.3973C326.305 96.1916 326.592 96.0484 326.902 95.9677C327.214 95.8843 327.522 95.8427 327.824 95.8427C328.016 95.8427 328.238 95.8661 328.488 95.913C328.74 95.9572 328.984 96.0497 329.218 96.1903C329.455 96.3309 329.652 96.5432 329.808 96.827C329.964 97.1109 330.042 97.4911 330.042 97.9677V101.921H329.12V101.108H329.074C329.011 101.238 328.907 101.378 328.761 101.526C328.615 101.675 328.421 101.801 328.179 101.905C327.937 102.009 327.641 102.061 327.292 102.061ZM327.433 101.233C327.798 101.233 328.105 101.162 328.355 101.018C328.607 100.875 328.798 100.69 328.925 100.464C329.055 100.237 329.12 99.9989 329.12 99.7489V98.9052C329.081 98.952 328.995 98.995 328.863 99.0341C328.732 99.0705 328.581 99.1031 328.41 99.1317C328.24 99.1578 328.075 99.1812 327.913 99.202C327.755 99.2203 327.626 99.2359 327.527 99.2489C327.287 99.2802 327.063 99.3309 326.855 99.4012C326.649 99.469 326.482 99.5718 326.355 99.7098C326.23 99.8453 326.167 100.03 326.167 100.265C326.167 100.585 326.286 100.827 326.523 100.991C326.762 101.153 327.066 101.233 327.433 101.233Z" fill="#333333"/>
</g>
<path d="M240.941 0V218.06" stroke="#DDDDDD"/>
<path d="M138.362 266.878H363.516" stroke="#DDDDDD"/>
<path d="M138.362 237.44H363.516" stroke="#DDDDDD"/>
<path d="M138.362 209.092H363.516" stroke="#DDDDDD"/>
<path d="M138.362 179.654H363.516" stroke="#DDDDDD"/>
<path d="M138.362 151.306H363.516" stroke="#DDDDDD"/>
<path d="M138.362 121.868H363.516" stroke="#DDDDDD"/>
<path d="M138.362 93.5199H363.516" stroke="#DDDDDD"/>
<path d="M138.362 64.0818H363.516" stroke="#DDDDDD"/>
<path d="M240.942 218.06V223.512" stroke="#777777"/>
<path d="M127.292 218.06H352.446" stroke="white"/>
<path d="M235.639 251.866V245.321H236.645V251.866H235.639ZM236.151 244.23C235.955 244.23 235.786 244.163 235.644 244.03C235.504 243.896 235.435 243.736 235.435 243.548C235.435 243.361 235.504 243.2 235.644 243.066C235.786 242.933 235.955 242.866 236.151 242.866C236.347 242.866 236.514 242.933 236.653 243.066C236.796 243.2 236.867 243.361 236.867 243.548C236.867 243.736 236.796 243.896 236.653 244.03C236.514 244.163 236.347 244.23 236.151 244.23ZM240.959 252.003C240.413 252.003 239.932 251.865 239.514 251.589C239.096 251.311 238.77 250.919 238.534 250.413C238.298 249.905 238.18 249.304 238.18 248.611C238.18 247.923 238.298 247.326 238.534 246.821C238.77 246.315 239.098 245.924 239.518 245.649C239.939 245.373 240.424 245.236 240.976 245.236C241.402 245.236 241.738 245.307 241.985 245.449C242.235 245.588 242.426 245.747 242.557 245.926C242.69 246.102 242.794 246.247 242.868 246.361H242.953V243.139H243.959V251.866H242.987V250.861H242.868C242.794 250.98 242.689 251.13 242.552 251.312C242.416 251.491 242.221 251.652 241.968 251.794C241.716 251.933 241.379 252.003 240.959 252.003ZM241.095 251.099C241.498 251.099 241.839 250.994 242.118 250.784C242.396 250.571 242.608 250.277 242.753 249.902C242.897 249.524 242.97 249.088 242.97 248.593C242.97 248.105 242.899 247.677 242.757 247.311C242.615 246.941 242.405 246.655 242.126 246.45C241.848 246.243 241.504 246.139 241.095 246.139C240.669 246.139 240.314 246.248 240.03 246.467C239.748 246.683 239.537 246.977 239.395 247.349C239.255 247.718 239.186 248.133 239.186 248.593C239.186 249.059 239.257 249.483 239.399 249.863C239.544 250.241 239.757 250.542 240.038 250.767C240.322 250.988 240.674 251.099 241.095 251.099Z" fill="#333333"/>
<path d="M122.217 271.39H116.856" stroke="#777777"/>
<path d="M108.058 270.506C107.469 270.506 106.968 270.346 106.554 270.026C106.14 269.703 105.824 269.235 105.605 268.623C105.386 268.009 105.277 267.267 105.277 266.397C105.277 265.532 105.386 264.794 105.605 264.182C105.826 263.567 106.144 263.099 106.558 262.776C106.975 262.45 107.475 262.287 108.058 262.287C108.641 262.287 109.14 262.45 109.554 262.776C109.971 263.099 110.288 263.567 110.507 264.182C110.728 264.794 110.839 265.532 110.839 266.397C110.839 267.267 110.73 268.009 110.511 268.623C110.292 269.235 109.976 269.703 109.562 270.026C109.148 270.346 108.646 270.506 108.058 270.506ZM108.058 269.647C108.641 269.647 109.094 269.365 109.417 268.803C109.74 268.24 109.902 267.438 109.902 266.397C109.902 265.704 109.827 265.114 109.679 264.627C109.533 264.14 109.322 263.769 109.046 263.514C108.773 263.259 108.443 263.131 108.058 263.131C107.48 263.131 107.028 263.416 106.702 263.987C106.377 264.554 106.214 265.358 106.214 266.397C106.214 267.089 106.287 267.678 106.433 268.162C106.579 268.647 106.788 269.015 107.062 269.268C107.338 269.52 107.67 269.647 108.058 269.647Z" fill="#333333"/>
<path d="M122.217 241.952H116.856" stroke="#777777"/>
<path d="M108.131 241.068C107.673 241.068 107.26 240.977 106.893 240.795C106.526 240.612 106.231 240.362 106.01 240.045C105.789 239.727 105.668 239.365 105.647 238.959H106.584C106.621 239.321 106.785 239.62 107.076 239.857C107.371 240.091 107.722 240.209 108.131 240.209C108.459 240.209 108.751 240.132 109.006 239.978C109.264 239.825 109.466 239.614 109.612 239.345C109.76 239.075 109.834 238.769 109.834 238.427C109.834 238.078 109.757 237.767 109.604 237.494C109.453 237.218 109.244 237 108.979 236.841C108.713 236.683 108.41 236.602 108.069 236.599C107.824 236.597 107.573 236.634 107.315 236.713C107.057 236.788 106.845 236.886 106.678 237.005L105.772 236.896L106.256 232.959H110.412V233.818H107.069L106.787 236.177H106.834C106.998 236.047 107.204 235.939 107.451 235.853C107.699 235.767 107.957 235.724 108.225 235.724C108.714 235.724 109.151 235.841 109.533 236.076C109.919 236.308 110.221 236.625 110.44 237.029C110.661 237.433 110.772 237.894 110.772 238.412C110.772 238.922 110.657 239.378 110.428 239.779C110.201 240.177 109.889 240.492 109.49 240.724C109.092 240.953 108.639 241.068 108.131 241.068Z" fill="#333333"/>
<path d="M122.217 213.604H116.856" stroke="#777777"/>
<path d="M103.148 204.611V212.611H102.179V205.626H102.132L100.179 206.923V205.939L102.179 204.611H103.148ZM108.058 212.72C107.469 212.72 106.968 212.56 106.554 212.24C106.14 211.917 105.824 211.449 105.605 210.837C105.386 210.223 105.277 209.481 105.277 208.611C105.277 207.746 105.386 207.008 105.605 206.396C105.826 205.781 106.144 205.313 106.558 204.99C106.975 204.664 107.475 204.501 108.058 204.501C108.641 204.501 109.14 204.664 109.554 204.99C109.971 205.313 110.288 205.781 110.507 206.396C110.729 207.008 110.839 207.746 110.839 208.611C110.839 209.481 110.73 210.223 110.511 210.837C110.292 211.449 109.976 211.917 109.562 212.24C109.148 212.56 108.647 212.72 108.058 212.72ZM108.058 211.861C108.641 211.861 109.094 211.579 109.417 211.017C109.74 210.454 109.902 209.652 109.902 208.611C109.902 207.918 109.828 207.328 109.679 206.841C109.533 206.354 109.322 205.983 109.046 205.728C108.773 205.473 108.443 205.345 108.058 205.345C107.48 205.345 107.028 205.63 106.703 206.201C106.377 206.768 106.214 207.572 106.214 208.611C106.214 209.303 106.287 209.892 106.433 210.376C106.579 210.861 106.788 211.229 107.062 211.482C107.338 211.734 107.67 211.861 108.058 211.861Z" fill="#333333"/>
<path d="M122.217 184.166H116.856" stroke="#777777"/>
<path d="M103.33 175.173V183.173H102.362V176.188H102.315L100.362 177.485V176.501L102.362 175.173H103.33ZM108.131 183.282C107.673 183.282 107.26 183.191 106.893 183.008C106.526 182.826 106.231 182.576 106.01 182.258C105.789 181.941 105.668 181.579 105.647 181.173H106.584C106.621 181.535 106.785 181.834 107.077 182.071C107.371 182.305 107.722 182.423 108.131 182.423C108.459 182.423 108.751 182.346 109.006 182.192C109.264 182.038 109.466 181.827 109.612 181.559C109.76 181.288 109.834 180.982 109.834 180.641C109.834 180.292 109.758 179.981 109.604 179.708C109.453 179.432 109.245 179.214 108.979 179.055C108.713 178.897 108.41 178.816 108.069 178.813C107.824 178.811 107.573 178.848 107.315 178.926C107.057 179.002 106.845 179.1 106.678 179.219L105.772 179.11L106.256 175.173H110.412V176.032H107.069L106.787 178.391H106.834C106.998 178.261 107.204 178.153 107.452 178.067C107.699 177.981 107.957 177.938 108.225 177.938C108.715 177.938 109.151 178.055 109.534 178.29C109.919 178.522 110.221 178.839 110.44 179.243C110.661 179.647 110.772 180.107 110.772 180.626C110.772 181.136 110.657 181.592 110.428 181.993C110.202 182.391 109.889 182.706 109.491 182.938C109.092 183.167 108.639 183.282 108.131 183.282Z" fill="#333333"/>
<path d="M122.217 155.818H116.856" stroke="#777777"/>
<path d="M98.7884 154.825V154.122L101.429 151.231C101.739 150.893 101.994 150.598 102.195 150.348C102.395 150.096 102.544 149.859 102.64 149.637C102.739 149.413 102.788 149.179 102.788 148.934C102.788 148.653 102.721 148.409 102.585 148.204C102.452 147.998 102.27 147.839 102.038 147.727C101.807 147.615 101.546 147.559 101.257 147.559C100.95 147.559 100.682 147.623 100.452 147.751C100.226 147.876 100.05 148.051 99.9251 148.278C99.8027 148.505 99.7415 148.77 99.7415 149.075H98.8196C98.8196 148.606 98.9277 148.195 99.1438 147.84C99.36 147.486 99.6543 147.21 100.027 147.012C100.402 146.814 100.822 146.715 101.288 146.715C101.757 146.715 102.172 146.814 102.534 147.012C102.896 147.21 103.18 147.477 103.386 147.813C103.592 148.149 103.695 148.523 103.695 148.934C103.695 149.228 103.641 149.516 103.534 149.797C103.43 150.076 103.248 150.387 102.988 150.731C102.73 151.072 102.372 151.489 101.913 151.981L100.116 153.903V153.965H103.835V154.825H98.7884ZM108.058 154.934C107.469 154.934 106.968 154.774 106.554 154.454C106.14 154.131 105.824 153.663 105.605 153.051C105.386 152.437 105.277 151.695 105.277 150.825C105.277 149.96 105.386 149.222 105.605 148.61C105.826 147.995 106.144 147.527 106.558 147.204C106.975 146.878 107.475 146.715 108.058 146.715C108.641 146.715 109.14 146.878 109.554 147.204C109.971 147.527 110.288 147.995 110.507 148.61C110.728 149.222 110.839 149.96 110.839 150.825C110.839 151.695 110.73 152.437 110.511 153.051C110.292 153.663 109.976 154.131 109.562 154.454C109.148 154.774 108.646 154.934 108.058 154.934ZM108.058 154.075C108.641 154.075 109.094 153.794 109.417 153.231C109.74 152.669 109.902 151.866 109.902 150.825C109.902 150.132 109.827 149.542 109.679 149.055C109.533 148.568 109.322 148.197 109.046 147.942C108.773 147.687 108.443 147.559 108.058 147.559C107.48 147.559 107.028 147.844 106.702 148.415C106.377 148.982 106.214 149.786 106.214 150.825C106.214 151.518 106.287 152.106 106.433 152.59C106.579 153.075 106.788 153.443 107.062 153.696C107.338 153.949 107.67 154.075 108.058 154.075Z" fill="#333333"/>
<path d="M122.217 126.38H116.856" stroke="#777777"/>
<path d="M98.971 125.387V124.684L101.612 121.793C101.922 121.454 102.177 121.16 102.377 120.91C102.578 120.657 102.726 120.421 102.823 120.199C102.922 119.975 102.971 119.741 102.971 119.496C102.971 119.215 102.903 118.971 102.768 118.766C102.635 118.56 102.453 118.401 102.221 118.289C101.989 118.177 101.729 118.121 101.44 118.121C101.132 118.121 100.864 118.185 100.635 118.312C100.408 118.437 100.233 118.613 100.108 118.84C99.9853 119.066 99.9241 119.332 99.9241 119.637H99.0022C99.0022 119.168 99.1103 118.756 99.3265 118.402C99.5426 118.048 99.8369 117.772 100.209 117.574C100.584 117.376 101.005 117.277 101.471 117.277C101.94 117.277 102.355 117.376 102.717 117.574C103.079 117.772 103.363 118.039 103.569 118.375C103.774 118.711 103.877 119.085 103.877 119.496C103.877 119.79 103.824 120.078 103.717 120.359C103.613 120.638 103.431 120.949 103.17 121.293C102.912 121.634 102.554 122.051 102.096 122.543L100.299 124.465V124.527H104.018V125.387H98.971ZM108.131 125.496C107.673 125.496 107.26 125.405 106.893 125.223C106.526 125.04 106.231 124.79 106.01 124.473C105.789 124.155 105.668 123.793 105.647 123.387H106.584C106.621 123.749 106.785 124.048 107.076 124.285C107.371 124.519 107.722 124.637 108.131 124.637C108.459 124.637 108.751 124.56 109.006 124.406C109.264 124.253 109.466 124.042 109.612 123.773C109.76 123.503 109.834 123.197 109.834 122.855C109.834 122.506 109.757 122.195 109.604 121.922C109.453 121.646 109.244 121.428 108.979 121.269C108.713 121.111 108.41 121.03 108.069 121.027C107.824 121.025 107.573 121.062 107.315 121.141C107.057 121.216 106.845 121.314 106.678 121.434L105.772 121.324L106.256 117.387H110.412V118.246H107.069L106.787 120.605H106.834C106.998 120.475 107.204 120.367 107.451 120.281C107.699 120.195 107.957 120.152 108.225 120.152C108.714 120.152 109.151 120.269 109.533 120.504C109.919 120.736 110.221 121.053 110.44 121.457C110.661 121.861 110.772 122.322 110.772 122.84C110.772 123.35 110.657 123.806 110.428 124.207C110.201 124.605 109.889 124.921 109.491 125.152C109.092 125.381 108.639 125.496 108.131 125.496Z" fill="#333333"/>
<path d="M122.217 98.0322H116.856" stroke="#777777"/>
<path d="M101.148 97.1482C100.632 97.1482 100.172 97.0597 99.7688 96.8826C99.3678 96.7055 99.0488 96.4594 98.8118 96.1443C98.5774 95.8266 98.4498 95.4581 98.429 95.0388H99.4134C99.4342 95.2966 99.5227 95.5193 99.679 95.7068C99.8352 95.8917 100.04 96.0349 100.292 96.1365C100.545 96.238 100.825 96.2888 101.132 96.2888C101.476 96.2888 101.781 96.2289 102.046 96.1091C102.312 95.9893 102.52 95.8227 102.671 95.6091C102.822 95.3956 102.898 95.1482 102.898 94.8669C102.898 94.5727 102.825 94.3136 102.679 94.0896C102.533 93.863 102.32 93.686 102.038 93.5583C101.757 93.4307 101.413 93.3669 101.007 93.3669H100.366V92.5076H101.007C101.325 92.5076 101.603 92.4503 101.843 92.3357C102.085 92.2211 102.274 92.0597 102.409 91.8513C102.547 91.643 102.616 91.3982 102.616 91.1169C102.616 90.8461 102.557 90.6104 102.437 90.4099C102.317 90.2094 102.148 90.0531 101.929 89.9412C101.713 89.8292 101.458 89.7732 101.163 89.7732C100.887 89.7732 100.627 89.824 100.382 89.9255C100.14 90.0245 99.942 90.169 99.7884 90.3591C99.6347 90.5466 99.5514 90.7732 99.5384 91.0388H98.6009C98.6165 90.6195 98.7428 90.2524 98.9798 89.9373C99.2168 89.6195 99.5266 89.3722 99.9095 89.1951C100.295 89.018 100.718 88.9294 101.179 88.9294C101.674 88.9294 102.098 89.0297 102.452 89.2302C102.807 89.4281 103.079 89.6899 103.269 90.0154C103.459 90.3409 103.554 90.6925 103.554 91.0701C103.554 91.5206 103.436 91.9047 103.199 92.2224C102.964 92.5401 102.645 92.7602 102.241 92.8826V92.9451C102.747 93.0284 103.141 93.2432 103.425 93.5896C103.709 93.9333 103.851 94.3591 103.851 94.8669C103.851 95.3018 103.732 95.6925 103.495 96.0388C103.261 96.3826 102.941 96.6534 102.534 96.8513C102.128 97.0492 101.666 97.1482 101.148 97.1482ZM108.058 97.1482C107.469 97.1482 106.968 96.988 106.554 96.6677C106.14 96.3448 105.824 95.8774 105.605 95.2654C105.386 94.6508 105.277 93.9086 105.277 93.0388C105.277 92.1742 105.386 91.436 105.605 90.824C105.826 90.2094 106.144 89.7406 106.558 89.4177C106.975 89.0922 107.475 88.9294 108.058 88.9294C108.641 88.9294 109.14 89.0922 109.554 89.4177C109.971 89.7406 110.288 90.2094 110.507 90.824C110.728 91.436 110.839 92.1742 110.839 93.0388C110.839 93.9086 110.73 94.6508 110.511 95.2654C110.292 95.8774 109.976 96.3448 109.562 96.6677C109.148 96.988 108.646 97.1482 108.058 97.1482ZM108.058 96.2888C108.641 96.2888 109.094 96.0076 109.417 95.4451C109.74 94.8826 109.902 94.0805 109.902 93.0388C109.902 92.3461 109.827 91.7563 109.679 91.2693C109.533 90.7823 109.322 90.4112 109.046 90.156C108.773 89.9008 108.443 89.7732 108.058 89.7732C107.48 89.7732 107.028 90.0583 106.702 90.6287C106.377 91.1964 106.214 91.9998 106.214 93.0388C106.214 93.7315 106.287 94.3201 106.433 94.8044C106.579 95.2888 106.788 95.6573 107.062 95.9099C107.338 96.1625 107.67 96.2888 108.058 96.2888Z" fill="#333333"/>
<path d="M122.217 68.5941H116.856" stroke="#777777"/>
<path d="M101.33 67.7101C100.815 67.7101 100.355 67.6215 99.9515 67.4445C99.5504 67.2674 99.2314 67.0213 98.9944 66.7062C98.76 66.3885 98.6324 66.02 98.6116 65.6007H99.596C99.6168 65.8585 99.7054 66.0812 99.8616 66.2687C100.018 66.4536 100.222 66.5968 100.475 66.6984C100.727 66.7999 101.007 66.8507 101.315 66.8507C101.658 66.8507 101.963 66.7908 102.229 66.671C102.494 66.5512 102.703 66.3846 102.854 66.171C103.005 65.9575 103.08 65.7101 103.08 65.4288C103.08 65.1346 103.007 64.8754 102.862 64.6515C102.716 64.4249 102.502 64.2478 102.221 64.1202C101.94 63.9926 101.596 63.9288 101.19 63.9288H100.549V63.0695H101.19C101.507 63.0695 101.786 63.0122 102.026 62.8976C102.268 62.783 102.457 62.6215 102.592 62.4132C102.73 62.2049 102.799 61.9601 102.799 61.6788C102.799 61.408 102.739 61.1723 102.619 60.9718C102.5 60.7713 102.33 60.615 102.112 60.5031C101.895 60.3911 101.64 60.3351 101.346 60.3351C101.07 60.3351 100.81 60.3859 100.565 60.4874C100.323 60.5864 100.125 60.7309 99.971 60.921C99.8173 61.1085 99.734 61.3351 99.721 61.6007H98.7835C98.7991 61.1814 98.9254 60.8142 99.1624 60.4991C99.3994 60.1814 99.7093 59.934 100.092 59.757C100.477 59.5799 100.901 59.4913 101.362 59.4913C101.856 59.4913 102.281 59.5916 102.635 59.7921C102.989 59.99 103.261 60.2517 103.451 60.5773C103.642 60.9028 103.737 61.2544 103.737 61.632C103.737 62.0825 103.618 62.4666 103.381 62.7843C103.147 63.102 102.828 63.3221 102.424 63.4445V63.507C102.929 63.5903 103.324 63.8051 103.608 64.1515C103.892 64.4952 104.033 64.921 104.033 65.4288C104.033 65.8637 103.915 66.2544 103.678 66.6007C103.444 66.9445 103.123 67.2153 102.717 67.4132C102.311 67.6111 101.849 67.7101 101.33 67.7101ZM108.131 67.7101C107.673 67.7101 107.26 67.6189 106.893 67.4366C106.526 67.2544 106.231 67.0044 106.01 66.6866C105.789 66.3689 105.668 66.007 105.647 65.6007H106.584C106.621 65.9627 106.785 66.2622 107.076 66.4991C107.371 66.7335 107.722 66.8507 108.131 66.8507C108.459 66.8507 108.751 66.7739 109.006 66.6202C109.264 66.4666 109.466 66.2557 109.612 65.9874C109.76 65.7166 109.834 65.4106 109.834 65.0695C109.834 64.7205 109.757 64.4093 109.604 64.1359C109.453 63.8598 109.244 63.6424 108.979 63.4835C108.713 63.3247 108.41 63.2439 108.069 63.2413C107.824 63.2387 107.573 63.2765 107.315 63.3546C107.057 63.4301 106.845 63.5278 106.678 63.6476L105.772 63.5382L106.256 59.6007H110.412V60.4601H107.069L106.787 62.8195H106.834C106.998 62.6892 107.204 62.5812 107.451 62.4952C107.699 62.4093 107.957 62.3663 108.225 62.3663C108.714 62.3663 109.151 62.4835 109.533 62.7179C109.919 62.9497 110.221 63.2674 110.44 63.671C110.661 64.0747 110.772 64.5356 110.772 65.0538C110.772 65.5642 110.657 66.02 110.428 66.421C110.201 66.8195 109.889 67.1346 109.491 67.3663C109.092 67.5955 108.639 67.7101 108.131 67.7101Z" fill="#333333"/>
<path d="M122.217 53.3298V271.39" stroke="white"/>
<path d="M71.919 171.439H72.7713V174.967H71.919V171.439ZM78.4645 173.91H71.0156C70.6406 173.91 70.3281 173.822 70.0781 173.646C69.8281 173.47 69.6406 173.241 69.5156 172.96C69.3906 172.679 69.3281 172.382 69.3281 172.069C69.3281 171.822 69.348 171.621 69.3878 171.464C69.4275 171.308 69.4645 171.192 69.4986 171.115L70.3679 171.405C70.3508 171.456 70.3295 171.527 70.304 171.618C70.2784 171.706 70.2656 171.822 70.2656 171.967C70.2656 172.3 70.3494 172.54 70.517 172.687C70.6846 172.832 70.9304 172.905 71.2542 172.905H78.4645V173.91ZM78.6008 167.64C78.6008 168.231 78.4602 168.749 78.179 169.195C77.8977 169.638 77.5043 169.985 76.9986 170.235C76.4929 170.482 75.902 170.606 75.2258 170.606C74.544 170.606 73.9489 170.482 73.4403 170.235C72.9318 169.985 72.5369 169.638 72.2557 169.195C71.9744 168.749 71.8338 168.231 71.8338 167.64C71.8338 167.049 71.9744 166.532 72.2557 166.089C72.5369 165.643 72.9318 165.296 73.4403 165.049C73.9489 164.799 74.544 164.674 75.2258 164.674C75.902 164.674 76.4929 164.799 76.9986 165.049C77.5043 165.296 77.8977 165.643 78.179 166.089C78.4602 166.532 78.6008 167.049 78.6008 167.64ZM77.6974 167.64C77.6974 167.191 77.5824 166.822 77.3523 166.532C77.1221 166.242 76.8196 166.028 76.4446 165.888C76.0696 165.749 75.6633 165.68 75.2258 165.68C74.7883 165.68 74.3807 165.749 74.0028 165.888C73.625 166.028 73.3196 166.242 73.0866 166.532C72.8537 166.822 72.7372 167.191 72.7372 167.64C72.7372 168.089 72.8537 168.458 73.0866 168.748C73.3196 169.038 73.625 169.252 74.0028 169.391C74.3807 169.53 74.7883 169.6 75.2258 169.6C75.6633 169.6 76.0696 169.53 76.4446 169.391C76.8196 169.252 77.1221 169.038 77.3523 168.748C77.5824 168.458 77.6974 168.089 77.6974 167.64ZM78.6008 160.48C78.6008 161.071 78.4602 161.589 78.179 162.035C77.8977 162.478 77.5043 162.825 76.9986 163.075C76.4929 163.322 75.902 163.446 75.2258 163.446C74.544 163.446 73.9489 163.322 73.4403 163.075C72.9318 162.825 72.5369 162.478 72.2557 162.035C71.9744 161.589 71.8338 161.071 71.8338 160.48C71.8338 159.889 71.9744 159.372 72.2557 158.928C72.5369 158.482 72.9318 158.136 73.4403 157.889C73.9489 157.639 74.544 157.514 75.2258 157.514C75.902 157.514 76.4929 157.639 76.9986 157.889C77.5043 158.136 77.8977 158.482 78.179 158.928C78.4602 159.372 78.6008 159.889 78.6008 160.48ZM77.6974 160.48C77.6974 160.031 77.5824 159.661 77.3523 159.372C77.1221 159.082 76.8196 158.867 76.4446 158.728C76.0696 158.589 75.6633 158.519 75.2258 158.519C74.7883 158.519 74.3807 158.589 74.0028 158.728C73.625 158.867 73.3196 159.082 73.0866 159.372C72.8537 159.661 72.7372 160.031 72.7372 160.48C72.7372 160.928 72.8537 161.298 73.0866 161.588C73.3196 161.877 73.625 162.092 74.0028 162.231C74.3807 162.37 74.7883 162.44 75.2258 162.44C75.6633 162.44 76.0696 162.37 76.4446 162.231C76.8196 162.092 77.1221 161.877 77.3523 161.588C77.5824 161.298 77.6974 160.928 77.6974 160.48ZM78.6008 153.507C78.6008 154.052 78.4631 154.534 78.1875 154.952C77.9091 155.369 77.517 155.696 77.0114 155.932C76.5028 156.167 75.902 156.285 75.2088 156.285C74.5213 156.285 73.9247 156.167 73.419 155.932C72.9133 155.696 72.5227 155.368 72.2471 154.947C71.9716 154.527 71.8338 154.041 71.8338 153.49C71.8338 153.064 71.9048 152.727 72.0469 152.48C72.1861 152.23 72.3452 152.04 72.5241 151.909C72.7003 151.775 72.8452 151.672 72.9588 151.598V151.513H69.7372V150.507H78.4645V151.479H77.4588V151.598C77.5781 151.672 77.7287 151.777 77.9105 151.913C78.0895 152.05 78.25 152.244 78.392 152.497C78.5312 152.75 78.6008 153.087 78.6008 153.507ZM77.6974 153.371C77.6974 152.967 77.5923 152.626 77.3821 152.348C77.169 152.069 76.875 151.858 76.5 151.713C76.1221 151.568 75.6861 151.496 75.1918 151.496C74.7031 151.496 74.2756 151.567 73.9091 151.709C73.5398 151.851 73.2528 152.061 73.0483 152.339C72.8409 152.618 72.7372 152.962 72.7372 153.371C72.7372 153.797 72.8466 154.152 73.0653 154.436C73.2812 154.717 73.5753 154.929 73.9474 155.071C74.3168 155.21 74.7315 155.28 75.1918 155.28C75.6577 155.28 76.081 155.209 76.4616 155.067C76.8395 154.922 77.1406 154.709 77.365 154.427C77.5866 154.143 77.6974 153.791 77.6974 153.371Z" fill="#333333"/>
<path d="M198.898 53.3298H174.753V271.39H198.898V53.3298Z" fill="#FFF7EC"/>
<path d="M176.091 161.476C175.576 161.476 175.116 161.387 174.712 161.21C174.311 161.033 173.992 160.787 173.755 160.472C173.521 160.154 173.393 159.786 173.372 159.367H174.357C174.378 159.624 174.466 159.847 174.622 160.035C174.779 160.219 174.983 160.363 175.236 160.464C175.488 160.566 175.768 160.617 176.076 160.617C176.419 160.617 176.724 160.557 176.99 160.437C177.255 160.317 177.464 160.15 177.615 159.937C177.766 159.723 177.841 159.476 177.841 159.195C177.841 158.9 177.768 158.641 177.622 158.417C177.477 158.191 177.263 158.014 176.982 157.886C176.701 157.759 176.357 157.695 175.951 157.695H175.31V156.835H175.951C176.268 156.835 176.547 156.778 176.786 156.663C177.029 156.549 177.217 156.387 177.353 156.179C177.491 155.971 177.56 155.726 177.56 155.445C177.56 155.174 177.5 154.938 177.38 154.738C177.26 154.537 177.091 154.381 176.872 154.269C176.656 154.157 176.401 154.101 176.107 154.101C175.831 154.101 175.57 154.152 175.326 154.253C175.083 154.352 174.885 154.497 174.732 154.687C174.578 154.874 174.495 155.101 174.482 155.367H173.544C173.56 154.947 173.686 154.58 173.923 154.265C174.16 153.947 174.47 153.7 174.853 153.523C175.238 153.346 175.661 153.257 176.122 153.257C176.617 153.257 177.042 153.357 177.396 153.558C177.75 153.756 178.022 154.018 178.212 154.343C178.402 154.669 178.497 155.02 178.497 155.398C178.497 155.848 178.379 156.232 178.142 156.55C177.908 156.868 177.589 157.088 177.185 157.21V157.273C177.69 157.356 178.085 157.571 178.369 157.917C178.652 158.261 178.794 158.687 178.794 159.195C178.794 159.63 178.676 160.02 178.439 160.367C178.204 160.71 177.884 160.981 177.478 161.179C177.072 161.377 176.609 161.476 176.091 161.476ZM180.642 161.367L184.22 154.288V154.226H180.095V153.367H185.22V154.273L181.658 161.367H180.642ZM185.989 161.429C185.796 161.429 185.631 161.36 185.493 161.222C185.355 161.084 185.286 160.919 185.286 160.726C185.286 160.533 185.355 160.368 185.493 160.23C185.631 160.092 185.796 160.023 185.989 160.023C186.181 160.023 186.347 160.092 186.485 160.23C186.623 160.368 186.692 160.533 186.692 160.726C186.692 160.854 186.659 160.971 186.594 161.078C186.532 161.184 186.447 161.27 186.34 161.335C186.236 161.398 186.119 161.429 185.989 161.429ZM190.707 161.476C190.379 161.471 190.051 161.408 189.723 161.288C189.395 161.169 189.095 160.967 188.825 160.683C188.554 160.397 188.336 160.01 188.172 159.523C188.008 159.033 187.926 158.419 187.926 157.679C187.926 156.971 187.993 156.343 188.125 155.796C188.258 155.247 188.451 154.785 188.703 154.41C188.956 154.032 189.261 153.745 189.618 153.55C189.977 153.355 190.382 153.257 190.832 153.257C191.28 153.257 191.679 153.347 192.028 153.527C192.379 153.704 192.666 153.951 192.887 154.269C193.108 154.587 193.252 154.953 193.317 155.367H192.364C192.275 155.007 192.103 154.709 191.848 154.472C191.593 154.235 191.254 154.117 190.832 154.117C190.213 154.117 189.724 154.386 189.368 154.925C189.013 155.464 188.835 156.221 188.832 157.195H188.895C189.041 156.973 189.214 156.785 189.414 156.628C189.618 156.469 189.841 156.347 190.086 156.261C190.331 156.175 190.59 156.132 190.864 156.132C191.322 156.132 191.741 156.247 192.121 156.476C192.502 156.703 192.806 157.016 193.036 157.417C193.265 157.816 193.379 158.273 193.379 158.788C193.379 159.283 193.269 159.736 193.047 160.148C192.826 160.557 192.515 160.882 192.114 161.124C191.715 161.364 191.246 161.481 190.707 161.476ZM190.707 160.617C191.036 160.617 191.33 160.535 191.59 160.37C191.853 160.206 192.06 159.986 192.211 159.71C192.365 159.434 192.442 159.127 192.442 158.788C192.442 158.458 192.368 158.157 192.219 157.886C192.073 157.613 191.871 157.395 191.614 157.234C191.358 157.072 191.067 156.992 190.739 156.992C190.491 156.992 190.261 157.041 190.047 157.14C189.834 157.236 189.646 157.369 189.485 157.538C189.326 157.708 189.201 157.902 189.11 158.12C189.019 158.337 188.973 158.564 188.973 158.804C188.973 159.122 189.047 159.419 189.196 159.695C189.347 159.971 189.552 160.193 189.813 160.363C190.076 160.532 190.374 160.617 190.707 160.617ZM197.619 161.476C197.103 161.476 196.643 161.387 196.24 161.21C195.839 161.033 195.52 160.787 195.283 160.472C195.048 160.154 194.921 159.786 194.9 159.367H195.884C195.905 159.624 195.994 159.847 196.15 160.035C196.306 160.219 196.51 160.363 196.763 160.464C197.016 160.566 197.296 160.617 197.603 160.617C197.947 160.617 198.251 160.557 198.517 160.437C198.783 160.317 198.991 160.15 199.142 159.937C199.293 159.723 199.369 159.476 199.369 159.195C199.369 158.9 199.296 158.641 199.15 158.417C199.004 158.191 198.79 158.014 198.509 157.886C198.228 157.759 197.884 157.695 197.478 157.695H196.837V156.835H197.478C197.796 156.835 198.074 156.778 198.314 156.663C198.556 156.549 198.745 156.387 198.88 156.179C199.018 155.971 199.087 155.726 199.087 155.445C199.087 155.174 199.027 154.938 198.908 154.738C198.788 154.537 198.619 154.381 198.4 154.269C198.184 154.157 197.928 154.101 197.634 154.101C197.358 154.101 197.098 154.152 196.853 154.253C196.611 154.352 196.413 154.497 196.259 154.687C196.105 154.874 196.022 155.101 196.009 155.367H195.072C195.087 154.947 195.214 154.58 195.451 154.265C195.688 153.947 195.997 153.7 196.38 153.523C196.766 153.346 197.189 153.257 197.65 153.257C198.145 153.257 198.569 153.357 198.923 153.558C199.277 153.756 199.55 154.018 199.74 154.343C199.93 154.669 200.025 155.02 200.025 155.398C200.025 155.848 199.906 156.232 199.669 156.55C199.435 156.868 199.116 157.088 198.712 157.21V157.273C199.217 157.356 199.612 157.571 199.896 157.917C200.18 158.261 200.322 158.687 200.322 159.195C200.322 159.63 200.203 160.02 199.966 160.367C199.732 160.71 199.411 160.981 199.005 161.179C198.599 161.377 198.137 161.476 197.619 161.476Z" fill="#333333"/>
<path d="M223.15 83.8583H199.005V271.39H223.15V83.8583Z" fill="#FEE8C8"/>
<path d="M200.231 176.74C199.715 176.74 199.255 176.652 198.852 176.475C198.451 176.297 198.132 176.051 197.895 175.736C197.66 175.419 197.533 175.05 197.512 174.631H198.496C198.517 174.889 198.606 175.111 198.762 175.299C198.918 175.484 199.123 175.627 199.375 175.728C199.628 175.83 199.908 175.881 200.215 175.881C200.559 175.881 200.864 175.821 201.129 175.701C201.395 175.581 201.603 175.415 201.754 175.201C201.905 174.988 201.981 174.74 201.981 174.459C201.981 174.165 201.908 173.906 201.762 173.682C201.616 173.455 201.403 173.278 201.121 173.15C200.84 173.023 200.496 172.959 200.09 172.959H199.449V172.1H200.09C200.408 172.1 200.686 172.042 200.926 171.928C201.168 171.813 201.357 171.652 201.492 171.443C201.63 171.235 201.699 170.99 201.699 170.709C201.699 170.438 201.64 170.202 201.52 170.002C201.4 169.801 201.231 169.645 201.012 169.533C200.796 169.421 200.541 169.365 200.246 169.365C199.97 169.365 199.71 169.416 199.465 169.518C199.223 169.616 199.025 169.761 198.871 169.951C198.718 170.139 198.634 170.365 198.621 170.631H197.684C197.699 170.212 197.826 169.844 198.063 169.529C198.3 169.212 198.61 168.964 198.992 168.787C199.378 168.61 199.801 168.521 200.262 168.521C200.757 168.521 201.181 168.622 201.535 168.822C201.89 169.02 202.162 169.282 202.352 169.607C202.542 169.933 202.637 170.284 202.637 170.662C202.637 171.113 202.518 171.497 202.281 171.814C202.047 172.132 201.728 172.352 201.324 172.475V172.537C201.83 172.62 202.224 172.835 202.508 173.182C202.792 173.525 202.934 173.951 202.934 174.459C202.934 174.894 202.815 175.284 202.578 175.631C202.344 175.975 202.024 176.245 201.617 176.443C201.211 176.641 200.749 176.74 200.231 176.74ZM204.531 176.631V175.928L207.172 173.037C207.482 172.699 207.737 172.404 207.938 172.154C208.138 171.902 208.287 171.665 208.383 171.443C208.482 171.219 208.531 170.985 208.531 170.74C208.531 170.459 208.464 170.215 208.328 170.01C208.196 169.804 208.013 169.645 207.781 169.533C207.55 169.421 207.289 169.365 207 169.365C206.693 169.365 206.425 169.429 206.196 169.557C205.969 169.682 205.793 169.857 205.668 170.084C205.546 170.31 205.485 170.576 205.485 170.881H204.563C204.563 170.412 204.671 170.001 204.887 169.646C205.103 169.292 205.397 169.016 205.77 168.818C206.145 168.62 206.565 168.521 207.031 168.521C207.5 168.521 207.916 168.62 208.278 168.818C208.64 169.016 208.923 169.283 209.129 169.619C209.335 169.955 209.438 170.329 209.438 170.74C209.438 171.034 209.384 171.322 209.278 171.603C209.173 171.882 208.991 172.193 208.731 172.537C208.473 172.878 208.115 173.295 207.656 173.787L205.86 175.709V175.771H209.578V176.631H204.531ZM211.879 176.693C211.686 176.693 211.521 176.624 211.383 176.486C211.245 176.348 211.176 176.183 211.176 175.99C211.176 175.797 211.245 175.632 211.383 175.494C211.521 175.356 211.686 175.287 211.879 175.287C212.072 175.287 212.237 175.356 212.375 175.494C212.513 175.632 212.582 175.797 212.582 175.99C212.582 176.118 212.55 176.235 212.485 176.342C212.422 176.449 212.337 176.534 212.231 176.6C212.127 176.662 212.009 176.693 211.879 176.693ZM214.033 174.99V174.193L217.549 168.631H218.127V169.865H217.737L215.08 174.068V174.131H219.815V174.99H214.033ZM217.799 176.631V174.748V174.377V168.631H218.721V176.631H217.799ZM223.984 168.631V176.631H223.015V169.646H222.968L221.015 170.943V169.959L223.015 168.631H223.984Z" fill="#333333"/>
<path d="M247.403 155.818H223.258V271.39H247.403V155.818Z" fill="#FDD49E"/>
<path d="M224.909 204.611V212.611H223.941V205.626H223.894L221.941 206.923V205.939L223.941 204.611H224.909ZM229.757 204.501C230.085 204.504 230.413 204.567 230.741 204.689C231.07 204.811 231.369 205.014 231.64 205.298C231.911 205.58 232.128 205.964 232.292 206.451C232.456 206.938 232.538 207.548 232.538 208.283C232.538 208.994 232.471 209.625 232.335 210.177C232.202 210.727 232.01 211.19 231.757 211.568C231.507 211.945 231.202 212.232 230.843 212.427C230.486 212.622 230.083 212.72 229.632 212.72C229.184 212.72 228.784 212.632 228.433 212.455C228.084 212.275 227.797 212.026 227.573 211.708C227.352 211.388 227.21 211.017 227.148 210.595H228.101C228.187 210.962 228.357 211.266 228.613 211.505C228.87 211.742 229.21 211.861 229.632 211.861C230.249 211.861 230.736 211.591 231.093 211.052C231.452 210.513 231.632 209.751 231.632 208.767H231.57C231.424 208.986 231.251 209.175 231.05 209.333C230.85 209.492 230.627 209.615 230.382 209.701C230.137 209.787 229.877 209.83 229.601 209.83C229.142 209.83 228.722 209.716 228.339 209.49C227.959 209.261 227.654 208.947 227.425 208.548C227.198 208.147 227.085 207.689 227.085 207.173C227.085 206.684 227.195 206.236 227.413 205.83C227.635 205.421 227.945 205.095 228.343 204.853C228.744 204.611 229.215 204.494 229.757 204.501ZM229.757 205.361C229.429 205.361 229.133 205.443 228.87 205.607C228.61 205.768 228.403 205.987 228.249 206.263C228.098 206.537 228.023 206.84 228.023 207.173C228.023 207.507 228.096 207.81 228.241 208.083C228.39 208.354 228.592 208.57 228.847 208.732C229.105 208.891 229.398 208.97 229.726 208.97C229.973 208.97 230.204 208.922 230.417 208.826C230.631 208.727 230.817 208.593 230.976 208.423C231.137 208.251 231.264 208.057 231.355 207.841C231.446 207.622 231.491 207.395 231.491 207.158C231.491 206.845 231.416 206.552 231.265 206.279C231.116 206.005 230.911 205.784 230.648 205.615C230.387 205.445 230.09 205.361 229.757 205.361ZM234.483 212.673C234.29 212.673 234.125 212.604 233.987 212.466C233.849 212.328 233.78 212.163 233.78 211.97C233.78 211.777 233.849 211.612 233.987 211.474C234.125 211.336 234.29 211.267 234.483 211.267C234.675 211.267 234.841 211.336 234.979 211.474C235.117 211.612 235.186 211.777 235.186 211.97C235.186 212.098 235.153 212.215 235.088 212.322C235.026 212.428 234.941 212.514 234.834 212.58C234.73 212.642 234.613 212.673 234.483 212.673ZM239.14 212.72C238.603 212.72 238.129 212.625 237.718 212.435C237.309 212.242 236.99 211.978 236.761 211.642C236.532 211.303 236.419 210.918 236.421 210.486C236.419 210.147 236.485 209.835 236.62 209.548C236.756 209.259 236.941 209.018 237.175 208.826C237.412 208.63 237.676 208.507 237.968 208.455V208.408C237.585 208.309 237.281 208.094 237.054 207.763C236.827 207.43 236.715 207.051 236.718 206.626C236.715 206.22 236.818 205.857 237.027 205.537C237.235 205.216 237.521 204.964 237.886 204.779C238.253 204.594 238.671 204.501 239.14 204.501C239.603 204.501 240.017 204.594 240.382 204.779C240.747 204.964 241.033 205.216 241.241 205.537C241.452 205.857 241.559 206.22 241.562 206.626C241.559 207.051 241.443 207.43 241.214 207.763C240.988 208.094 240.687 208.309 240.312 208.408V208.455C240.601 208.507 240.861 208.63 241.093 208.826C241.325 209.018 241.51 209.259 241.648 209.548C241.786 209.835 241.856 210.147 241.859 210.486C241.856 210.918 241.739 211.303 241.507 211.642C241.278 211.978 240.959 212.242 240.55 212.435C240.144 212.625 239.674 212.72 239.14 212.72ZM239.14 211.861C239.502 211.861 239.814 211.802 240.077 211.685C240.34 211.568 240.544 211.402 240.687 211.189C240.83 210.975 240.903 210.725 240.906 210.439C240.903 210.137 240.825 209.87 240.671 209.638C240.517 209.406 240.308 209.224 240.042 209.091C239.779 208.958 239.478 208.892 239.14 208.892C238.799 208.892 238.494 208.958 238.226 209.091C237.96 209.224 237.751 209.406 237.597 209.638C237.446 209.87 237.372 210.137 237.374 210.439C237.372 210.725 237.441 210.975 237.581 211.189C237.725 211.402 237.929 211.568 238.195 211.685C238.46 211.802 238.775 211.861 239.14 211.861ZM239.14 208.064C239.426 208.064 239.68 208.007 239.902 207.892C240.126 207.777 240.301 207.617 240.429 207.412C240.557 207.206 240.622 206.965 240.624 206.689C240.622 206.418 240.558 206.182 240.433 205.982C240.308 205.779 240.135 205.622 239.913 205.513C239.692 205.401 239.434 205.345 239.14 205.345C238.84 205.345 238.579 205.401 238.355 205.513C238.131 205.622 237.958 205.779 237.835 205.982C237.713 206.182 237.653 206.418 237.656 206.689C237.653 206.965 237.714 207.206 237.839 207.412C237.967 207.617 238.142 207.777 238.366 207.892C238.59 208.007 238.848 208.064 239.14 208.064ZM246.012 212.72C245.684 212.715 245.356 212.652 245.028 212.533C244.699 212.413 244.4 212.211 244.129 211.927C243.858 211.641 243.641 211.254 243.477 210.767C243.313 210.277 243.231 209.663 243.231 208.923C243.231 208.215 243.297 207.587 243.43 207.04C243.563 206.491 243.755 206.029 244.008 205.654C244.261 205.276 244.565 204.99 244.922 204.794C245.281 204.599 245.686 204.501 246.137 204.501C246.585 204.501 246.983 204.591 247.332 204.771C247.684 204.948 247.97 205.195 248.192 205.513C248.413 205.831 248.556 206.197 248.621 206.611H247.668C247.58 206.251 247.408 205.953 247.153 205.716C246.897 205.479 246.559 205.361 246.137 205.361C245.517 205.361 245.029 205.63 244.672 206.169C244.318 206.708 244.14 207.465 244.137 208.439H244.199C244.345 208.218 244.518 208.029 244.719 207.872C244.922 207.714 245.146 207.591 245.391 207.505C245.636 207.419 245.895 207.376 246.168 207.376C246.627 207.376 247.046 207.491 247.426 207.72C247.806 207.947 248.111 208.261 248.34 208.662C248.569 209.06 248.684 209.517 248.684 210.033C248.684 210.527 248.573 210.981 248.352 211.392C248.13 211.801 247.819 212.126 247.418 212.369C247.02 212.608 246.551 212.725 246.012 212.72ZM246.012 211.861C246.34 211.861 246.634 211.779 246.895 211.615C247.158 211.451 247.365 211.231 247.516 210.955C247.669 210.678 247.746 210.371 247.746 210.033C247.746 209.702 247.672 209.401 247.524 209.13C247.378 208.857 247.176 208.639 246.918 208.478C246.663 208.317 246.371 208.236 246.043 208.236C245.796 208.236 245.565 208.285 245.352 208.384C245.138 208.481 244.951 208.613 244.789 208.783C244.63 208.952 244.505 209.146 244.414 209.365C244.323 209.581 244.278 209.809 244.278 210.048C244.278 210.366 244.352 210.663 244.5 210.939C244.651 211.215 244.857 211.438 245.117 211.607C245.38 211.776 245.679 211.861 246.012 211.861Z" fill="#333333"/>
<path d="M271.655 240.862H247.51V271.39H271.655V240.862Z" fill="#FDBB84"/>
<path d="M251.368 255.242C250.91 255.242 250.497 255.151 250.13 254.968C249.763 254.786 249.469 254.536 249.247 254.218C249.026 253.901 248.905 253.539 248.884 253.133H249.821C249.858 253.494 250.022 253.794 250.314 254.031C250.608 254.265 250.959 254.383 251.368 254.383C251.696 254.383 251.988 254.306 252.243 254.152C252.501 253.998 252.703 253.787 252.849 253.519C252.997 253.248 253.071 252.942 253.071 252.601C253.071 252.252 252.995 251.941 252.841 251.668C252.69 251.392 252.482 251.174 252.216 251.015C251.95 250.856 251.647 250.776 251.306 250.773C251.061 250.771 250.81 250.808 250.552 250.886C250.294 250.962 250.082 251.06 249.915 251.179L249.009 251.07L249.493 247.133H253.65V247.992H250.306L250.025 250.351H250.071C250.235 250.221 250.441 250.113 250.689 250.027C250.936 249.941 251.194 249.898 251.462 249.898C251.952 249.898 252.388 250.015 252.771 250.25C253.156 250.481 253.458 250.799 253.677 251.203C253.898 251.606 254.009 252.067 254.009 252.586C254.009 253.096 253.894 253.552 253.665 253.953C253.439 254.351 253.126 254.666 252.728 254.898C252.329 255.127 251.876 255.242 251.368 255.242ZM255.947 255.195C255.755 255.195 255.589 255.126 255.451 254.988C255.313 254.85 255.244 254.685 255.244 254.492C255.244 254.299 255.313 254.134 255.451 253.996C255.589 253.858 255.755 253.789 255.947 253.789C256.14 253.789 256.305 253.858 256.443 253.996C256.581 254.134 256.651 254.299 256.651 254.492C256.651 254.619 256.618 254.737 256.553 254.843C256.49 254.95 256.406 255.036 256.299 255.101C256.195 255.164 256.078 255.195 255.947 255.195ZM258.289 255.133V254.429L260.93 251.539C261.24 251.2 261.495 250.906 261.695 250.656C261.896 250.403 262.044 250.166 262.141 249.945C262.24 249.721 262.289 249.487 262.289 249.242C262.289 248.961 262.221 248.717 262.086 248.511C261.953 248.306 261.771 248.147 261.539 248.035C261.307 247.923 261.047 247.867 260.758 247.867C260.451 247.867 260.182 247.931 259.953 248.058C259.727 248.183 259.551 248.359 259.426 248.586C259.304 248.812 259.242 249.078 259.242 249.383H258.32C258.32 248.914 258.429 248.502 258.645 248.148C258.861 247.794 259.155 247.518 259.527 247.32C259.902 247.122 260.323 247.023 260.789 247.023C261.258 247.023 261.673 247.122 262.035 247.32C262.397 247.518 262.681 247.785 262.887 248.121C263.093 248.457 263.195 248.83 263.195 249.242C263.195 249.536 263.142 249.824 263.035 250.105C262.931 250.384 262.749 250.695 262.488 251.039C262.231 251.38 261.873 251.797 261.414 252.289L259.617 254.211V254.273H263.336V255.133H258.289ZM267.652 255.242C267.137 255.242 266.677 255.153 266.274 254.976C265.873 254.799 265.554 254.553 265.317 254.238C265.082 253.92 264.955 253.552 264.934 253.133H265.918C265.939 253.39 266.027 253.613 266.184 253.8C266.34 253.985 266.544 254.129 266.797 254.23C267.05 254.332 267.33 254.383 267.637 254.383C267.981 254.383 268.285 254.323 268.551 254.203C268.817 254.083 269.025 253.916 269.176 253.703C269.327 253.489 269.402 253.242 269.402 252.961C269.402 252.666 269.33 252.407 269.184 252.183C269.038 251.957 268.824 251.78 268.543 251.652C268.262 251.524 267.918 251.461 267.512 251.461H266.871V250.601H267.512C267.83 250.601 268.108 250.544 268.348 250.429C268.59 250.315 268.779 250.153 268.914 249.945C269.052 249.737 269.121 249.492 269.121 249.211C269.121 248.94 269.061 248.704 268.942 248.504C268.822 248.303 268.652 248.147 268.434 248.035C268.218 247.923 267.962 247.867 267.668 247.867C267.392 247.867 267.132 247.918 266.887 248.019C266.645 248.118 266.447 248.263 266.293 248.453C266.139 248.64 266.056 248.867 266.043 249.133H265.106C265.121 248.713 265.248 248.346 265.484 248.031C265.721 247.713 266.031 247.466 266.414 247.289C266.8 247.112 267.223 247.023 267.684 247.023C268.179 247.023 268.603 247.123 268.957 247.324C269.311 247.522 269.583 247.784 269.774 248.109C269.964 248.435 270.059 248.786 270.059 249.164C270.059 249.614 269.94 249.998 269.703 250.316C269.469 250.634 269.15 250.854 268.746 250.976V251.039C269.251 251.122 269.646 251.337 269.93 251.683C270.214 252.027 270.356 252.453 270.356 252.961C270.356 253.396 270.237 253.786 270 254.133C269.766 254.476 269.445 254.747 269.039 254.945C268.633 255.143 268.171 255.242 267.652 255.242Z" fill="#333333"/>
<path d="M295.908 243.042H271.762V271.39H295.908V243.042Z" fill="#FC8D59"/>
<path d="M273.212 254.582V253.785L276.728 248.223H277.306V249.457H276.916L274.259 253.66V253.723H278.994V254.582H273.212ZM276.978 256.223V254.34V253.969V248.223H277.9V256.223H276.978ZM280.769 256.285C280.576 256.285 280.411 256.216 280.273 256.078C280.135 255.94 280.066 255.775 280.066 255.582C280.066 255.389 280.135 255.224 280.273 255.086C280.411 254.948 280.576 254.879 280.769 254.879C280.962 254.879 281.127 254.948 281.265 255.086C281.403 255.224 281.472 255.389 281.472 255.582C281.472 255.71 281.44 255.827 281.375 255.934C281.312 256.04 281.227 256.126 281.121 256.192C281.016 256.254 280.899 256.285 280.769 256.285ZM285.426 256.332C284.89 256.332 284.416 256.237 284.004 256.047C283.596 255.854 283.277 255.59 283.047 255.254C282.818 254.915 282.705 254.53 282.708 254.098C282.705 253.759 282.771 253.447 282.907 253.16C283.042 252.871 283.227 252.63 283.461 252.438C283.698 252.242 283.963 252.119 284.254 252.067V252.02C283.872 251.921 283.567 251.706 283.34 251.375C283.114 251.042 283.002 250.663 283.004 250.238C283.002 249.832 283.105 249.469 283.313 249.149C283.521 248.828 283.808 248.576 284.172 248.391C284.54 248.206 284.958 248.113 285.426 248.113C285.89 248.113 286.304 248.206 286.669 248.391C287.033 248.576 287.32 248.828 287.528 249.149C287.739 249.469 287.846 249.832 287.848 250.238C287.846 250.663 287.73 251.042 287.501 251.375C287.274 251.706 286.973 251.921 286.598 252.02V252.067C286.887 252.119 287.148 252.242 287.379 252.438C287.611 252.63 287.796 252.871 287.934 253.16C288.072 253.447 288.142 253.759 288.145 254.098C288.142 254.53 288.025 254.915 287.794 255.254C287.564 255.59 287.245 255.854 286.836 256.047C286.43 256.237 285.96 256.332 285.426 256.332ZM285.426 255.473C285.788 255.473 286.101 255.414 286.364 255.297C286.627 255.18 286.83 255.014 286.973 254.801C287.116 254.587 287.189 254.337 287.192 254.051C287.189 253.749 287.111 253.482 286.958 253.25C286.804 253.018 286.594 252.836 286.329 252.703C286.066 252.57 285.765 252.504 285.426 252.504C285.085 252.504 284.78 252.57 284.512 252.703C284.247 252.836 284.037 253.018 283.883 253.25C283.732 253.482 283.658 253.749 283.661 254.051C283.658 254.337 283.727 254.587 283.868 254.801C284.011 255.014 284.215 255.18 284.481 255.297C284.747 255.414 285.062 255.473 285.426 255.473ZM285.426 251.676C285.713 251.676 285.967 251.619 286.188 251.504C286.412 251.389 286.588 251.229 286.715 251.024C286.843 250.818 286.908 250.577 286.911 250.301C286.908 250.03 286.844 249.794 286.719 249.594C286.594 249.391 286.421 249.234 286.2 249.125C285.978 249.013 285.721 248.957 285.426 248.957C285.127 248.957 284.865 249.013 284.641 249.125C284.417 249.234 284.244 249.391 284.122 249.594C283.999 249.794 283.939 250.03 283.942 250.301C283.939 250.577 284.001 250.818 284.126 251.024C284.253 251.229 284.429 251.389 284.653 251.504C284.877 251.619 285.135 251.676 285.426 251.676ZM289.892 256.223L293.47 249.145V249.082H289.345V248.223H294.47V249.129L290.908 256.223H289.892Z" fill="#333333"/>
</svg>
