<svg width="1440" height="118" viewBox="0 0 1440 118" fill="none" xmlns="http://www.w3.org/2000/svg">
<path d="M20.742 57.9086C17.2222 56.902 5.4474 69.6523 0 76.1533V117.5H1440V70.491C1437.28 66.5065 1429.06 58.2859 1418 57.2793C1404.17 56.0211 1394.12 69.8619 1396.63 62.3124C1399.14 54.7628 1393.49 50.988 1387.83 50.988C1382.17 50.988 1384.69 58.5376 1381.55 60.425C1378.4 62.3124 1372.75 54.1337 1381.55 50.988C1390.34 47.8424 1372.12 38.4054 1361.43 36.5181C1350.75 34.6307 1345.09 43.4385 1341.32 43.4385C1337.55 43.4385 1340.69 34.6307 1336.29 30.2268C1331.89 25.8229 1311.78 40.922 1304.23 43.4385C1296.69 45.955 1276.58 26.452 1272.81 30.2268C1269.04 34.0015 1270.92 43.4385 1267.78 43.4385C1264.64 43.4385 1252.69 34.6307 1246.41 34.6307C1241.38 34.6307 1238.03 37.986 1236.98 39.6637C1224.41 20.7898 1201.78 20.1607 1196.75 21.419C1192.73 22.4256 1190.05 26.452 1189.21 28.3394C1187.95 21.6287 1181.16 7.9556 1164.07 6.94899C1146.97 5.94238 1136.41 18.2733 1133.27 24.5646C1131.8 20.3704 1124.09 12.3595 1104.98 13.8694C1081.1 15.7568 1076.07 39.6637 1074.19 27.0811C1072.3 14.4985 1065.39 10.7238 1046.53 7.57812C1027.67 4.43247 1028.3 17.0151 1026.42 17.0151C1024.53 17.0151 1014.47 10.0946 1001.9 13.8694C989.332 17.6442 993.103 44.0676 980.533 46.5841C970.476 48.5973 963.352 65.458 961.048 73.6367L934.649 74.2658C935.277 67.1357 938.043 52.8754 944.077 52.8754C951.619 52.8754 962.305 47.8424 964.19 44.0676C966.076 40.2928 962.305 35.2598 962.305 33.3724C962.305 31.485 972.361 35.2598 978.647 35.2598C984.932 35.2598 986.189 25.1937 983.047 24.5646C979.904 23.9355 983.675 3.80334 962.305 1.91596C940.934 0.028569 944.705 21.419 940.306 13.8694C935.906 6.31986 932.763 0.028569 925.22 1.91596C917.678 3.80334 925.22 6.94899 907.621 13.8694C890.022 20.7898 905.735 40.922 900.079 39.6637C894.422 38.4054 884.993 42.1802 890.022 49.7298C895.05 57.2793 912.021 49.7298 917.049 52.8754C921.072 55.3919 924.173 68.1842 925.22 74.2658H877.451C877.87 67.3454 875.565 52.7496 862.994 49.7298C850.423 46.7099 839.738 64.8289 835.967 74.2658H781.912C778.56 52.8754 761.673 10.8496 720.943 13.8694C680.213 16.8892 663.745 53.2948 660.602 71.1202C643.422 71.3299 607.302 71.6235 600.262 71.1202C593.222 70.6169 591.043 65.0386 590.834 62.3124C569.463 37.7763 539.921 71.7493 533.636 71.7493C527.351 71.7493 527.979 67.3454 523.579 63.5706C520.059 60.5508 501.161 67.7648 492.152 71.7493V52.8754C493.828 51.8269 497.935 49.7298 500.952 49.7298C504.723 49.7298 510.38 46.5842 512.894 44.6968C515.408 42.8094 516.037 35.8889 512.894 33.3725C509.751 30.856 510.38 29.5976 510.38 25.8229C510.38 22.0482 512.265 17.0151 510.38 13.8695C508.494 10.7238 502.209 6.31986 499.066 6.31986C495.923 6.31986 494.666 5.06166 492.152 1.91602C489.638 -1.22963 481.467 0.0286282 477.067 1.91602C472.667 3.8034 470.781 3.17427 471.41 8.83644C472.038 14.4986 457.582 17.0151 455.068 22.6773C452.553 28.3394 452.553 33.3725 455.068 33.3725C457.582 33.3725 460.096 40.922 460.096 44.6968C460.096 47.7166 474.343 49.3104 481.467 49.7298V74.2659C473.505 75.1047 457.079 75.7758 455.068 71.7493C452.553 66.7163 464.496 53.5046 455.068 46.5842C445.639 39.6638 429.926 46.5842 428.04 46.5842C426.155 46.5842 431.183 39.6638 440.611 39.0346C450.039 38.4055 443.125 28.3394 433.697 22.6773C424.269 17.0151 421.126 25.8229 413.584 25.8229C406.041 25.8229 406.67 13.2403 394.727 13.8695C382.785 14.4986 372.1 31.4851 363.928 33.3725C355.757 35.2598 328.73 17.6442 322.444 17.0151C316.159 16.386 306.731 27.0812 298.56 24.5647C290.388 22.0482 284.103 10.7238 271.532 7.57817C258.961 4.43252 248.904 34.0016 243.247 33.3725C237.591 32.7433 242.619 27.0812 238.219 24.5647C233.819 22.0482 185.421 54.1337 172.85 47.2133C162.794 41.677 158.184 43.2288 157.137 44.6968C157.137 44.6968 150.223 56.021 143.309 54.1337C136.395 52.2464 127.595 50.3589 120.681 56.021C113.767 61.6832 111.881 71.7493 100.567 72.3784C89.2536 73.0075 81.0825 61.0541 76.6827 59.1668C72.2828 57.2795 64.1117 59.1668 60.969 61.0541C57.8263 62.9414 53.4264 64.8289 49.6552 59.1668C46.6381 54.6371 43.7887 53.924 42.7412 54.1337C36.8747 55.8114 24.2619 58.9152 20.742 57.9086Z" fill="#2C5746"/>
</svg>
