<svg width="39" height="39" viewBox="0 0 39 39" fill="none" xmlns="http://www.w3.org/2000/svg">
<circle cx="19.5" cy="19.5" r="18.5" stroke="white" stroke-width="2"/>
<g clip-path="url(#clip0_253_688)">
<path fill-rule="evenodd" clip-rule="evenodd" d="M8.15773 13.0574C8.30791 12.4061 8.67708 11.8246 9.20479 11.408C9.7325 10.9915 10.3875 10.7647 11.0624 10.7648L28.9374 10.7648C29.6124 10.7647 30.2673 10.9915 30.795 11.408C31.3228 11.8246 31.6919 12.4061 31.8421 13.0574L19.9999 20.2213L8.15773 13.0574ZM8.08325 14.7411L8.08325 25.215L16.7273 19.9692L8.08325 14.7411ZM18.1543 20.8346L8.36776 26.7719C8.60956 27.2765 8.99119 27.7028 9.46824 28.0012C9.94529 28.2995 10.4981 28.4576 11.0624 28.4571L28.9374 28.4571C29.5016 28.4572 30.0543 28.2987 30.531 28.0002C31.0078 27.7016 31.3891 27.2751 31.6306 26.7704L21.844 20.8332L19.9999 21.9493L18.1543 20.8332L18.1543 20.8346ZM23.2725 19.9707L31.9166 25.215L31.9166 14.7411L23.2725 19.9692L23.2725 19.9707Z" fill="white"/>
</g>
<defs>
<clipPath id="clip0_253_688">
<rect width="22" height="23" fill="white" transform="translate(9 8)"/>
</clipPath>
</defs>
</svg>
