<svg width="478" height="520" viewBox="0 0 478 520" fill="none" xmlns="http://www.w3.org/2000/svg">
<rect x="122" y="173" width="123" height="18" rx="9" fill="#006A3B"/>
<rect x="154" y="136" width="27" height="18" rx="9" fill="#006A3B"/>
<rect x="86" y="212" width="163" height="17" rx="8.5" fill="#006A3B"/>
<rect x="107" y="249" width="148" height="17" rx="8.5" fill="#006A3B"/>
<rect x="122" y="288" width="123" height="17" rx="8.5" fill="#006A3B"/>
<rect x="122" y="326" width="26" height="17" rx="8.5" fill="#006A3B"/>
<rect x="154" y="326" width="91" height="17" rx="8.5" fill="#006A3B"/>
<rect x="187" y="136" width="58" height="18" rx="9" fill="#006A3B"/>
<path d="M89.0458 423.04H108.374L106.774 432H75.0297L76.5018 423.68L100.566 396.032H81.3658L82.9658 387.072H114.71L113.238 395.392L89.0458 423.04ZM131.267 395.712L129.667 405.056H144.323L142.851 413.312H128.195L126.403 423.36H142.979L141.443 432H113.923L121.859 387.072H149.379L147.843 395.712H131.267ZM174.852 387.072C179.502 387.072 183.044 388.139 185.476 390.272C187.908 392.363 189.124 395.093 189.124 398.464C189.124 399.445 189.038 400.363 188.868 401.216C188.356 404.203 187.054 406.869 184.964 409.216C182.873 411.563 180.078 413.227 176.58 414.208L183.812 432H171.46L165.124 415.04H162.5L159.492 432H148.548L156.484 387.072H174.852ZM177.668 401.664C177.753 400.981 177.796 400.533 177.796 400.32C177.796 398.955 177.348 397.909 176.452 397.184C175.598 396.416 174.318 396.032 172.612 396.032H165.828L163.844 407.296H170.628C172.633 407.296 174.212 406.805 175.364 405.824C176.558 404.843 177.326 403.456 177.668 401.664ZM211.674 432.448C207.876 432.448 204.527 431.659 201.626 430.08C198.767 428.501 196.548 426.283 194.97 423.424C193.391 420.565 192.602 417.28 192.602 413.568C192.602 408.32 193.732 403.648 195.994 399.552C198.255 395.413 201.391 392.192 205.402 389.888C209.455 387.584 214.042 386.432 219.162 386.432C223.002 386.432 226.372 387.221 229.274 388.8C232.175 390.336 234.415 392.533 235.994 395.392C237.572 398.208 238.362 401.451 238.362 405.12C238.362 410.368 237.231 415.083 234.97 419.264C232.708 423.403 229.551 426.645 225.498 428.992C221.444 431.296 216.836 432.448 211.674 432.448ZM213.338 422.336C216.154 422.336 218.628 421.611 220.762 420.16C222.895 418.709 224.538 416.768 225.69 414.336C226.884 411.861 227.482 409.195 227.482 406.336C227.482 403.264 226.628 400.853 224.922 399.104C223.215 397.355 220.826 396.48 217.754 396.48C214.938 396.48 212.442 397.205 210.266 398.656C208.132 400.107 206.468 402.048 205.274 404.48C204.122 406.869 203.546 409.515 203.546 412.416C203.546 415.488 204.399 417.92 206.106 419.712C207.812 421.461 210.223 422.336 213.338 422.336Z" fill="#02001D"/>
<path d="M6.72375 479.472C7.49175 475.035 9.13442 471.088 11.6518 467.632C14.2118 464.133 17.3691 461.424 21.1238 459.504C24.8784 457.541 28.9318 456.56 33.2838 456.56C38.6171 456.56 42.9264 457.968 46.2118 460.784C49.5398 463.6 51.4171 467.44 51.8438 472.304H39.8118C39.2571 470.469 38.2331 469.083 36.7397 468.144C35.2891 467.163 33.4971 466.672 31.3638 466.672C27.9931 466.672 25.0704 467.845 22.5958 470.192C20.1211 472.496 18.5424 475.589 17.8598 479.472C17.6464 480.667 17.5398 481.712 17.5398 482.608C17.5398 485.595 18.3718 487.963 20.0358 489.712C21.6998 491.461 23.9824 492.336 26.8838 492.336C28.9744 492.336 30.9158 491.845 32.7078 490.864C34.5424 489.883 36.0784 488.475 37.3158 486.64H49.3478C47.2144 491.504 43.9931 495.344 39.6838 498.16C35.3744 500.933 30.5531 502.32 25.2198 502.32C21.3798 502.32 18.0304 501.573 15.1718 500.08C12.3131 498.587 10.1158 496.475 8.57975 493.744C7.04375 491.013 6.27575 487.835 6.27575 484.208C6.27575 482.587 6.42508 481.008 6.72375 479.472ZM82.6738 494.064H65.9058L61.8098 502H50.3537L74.5458 457.072H87.2178L95.5378 502H83.9538L82.6738 494.064ZM81.3938 485.744L78.7698 469.104L70.1938 485.744H81.3938ZM126.789 457.072C131.44 457.072 134.981 458.139 137.413 460.272C139.845 462.363 141.061 465.093 141.061 468.464C141.061 469.445 140.976 470.363 140.805 471.216C140.293 474.203 138.992 476.869 136.901 479.216C134.811 481.563 132.016 483.227 128.517 484.208L135.749 502H123.397L117.061 485.04H114.437L111.429 502H100.485L108.421 457.072H126.789ZM129.605 471.664C129.691 470.981 129.733 470.533 129.733 470.32C129.733 468.955 129.285 467.909 128.389 467.184C127.536 466.416 126.256 466.032 124.549 466.032H117.765L115.781 477.296H122.565C124.571 477.296 126.149 476.805 127.301 475.824C128.496 474.843 129.264 473.456 129.605 471.664ZM167.003 457.072C171.142 457.072 174.705 457.819 177.691 459.312C180.721 460.763 183.025 462.832 184.603 465.52C186.225 468.165 187.035 471.28 187.035 474.864C187.035 476.101 186.886 477.659 186.587 479.536C185.819 483.931 184.155 487.835 181.595 491.248C179.078 494.661 175.857 497.307 171.931 499.184C168.049 501.061 163.761 502 159.067 502H142.235L150.171 457.072H167.003ZM160.027 492.656C164.166 492.656 167.601 491.504 170.331 489.2C173.062 486.896 174.769 483.675 175.451 479.536C175.665 478.256 175.771 477.189 175.771 476.336C175.771 473.179 174.811 470.747 172.891 469.04C170.971 467.291 168.241 466.416 164.699 466.416H159.451L154.843 492.656H160.027ZM228.927 502H217.983L204.607 474.288L199.679 502H188.735L196.671 457.072H207.615L220.991 484.912L225.919 457.072H236.863L228.927 502Z" fill="#006A3B"/>
<path d="M291.693 439.598C295.636 502.083 350.02 515.874 376.719 514.958C437.716 504.89 445.11 480.954 445.11 439.598C445.11 398.242 365.013 305.723 365.013 287.351C365.013 275.314 368.777 267.28 374.733 264.331C493.647 214.599 457.896 127.937 449.115 119.239C437.578 107.813 395.819 85.0679 340.059 114.358C284.299 143.648 265.507 182.091 286.148 278.198C306.788 374.306 286.764 361.491 291.693 439.598Z" fill="#02001D" stroke="#02001D" stroke-width="10"/>
<path d="M417.056 195.993C415.017 239.103 390.803 259.48 374.513 264.03L361.699 272.347C358.352 264.819 341.678 240.696 339.644 222.018C334.156 171.621 370.483 157.881 404.466 120.76C407.487 127.585 407.473 140.42 412.526 157.173C415.898 168.352 417.92 177.723 417.056 195.993Z" fill="#F1F1F1"/>
<path d="M418.68 201.717C416.739 240.998 389.142 259.292 375.586 263.529L364.896 271.176C362.16 264.338 348.45 242.458 346.868 225.456C342.601 179.581 372.82 164.13 401.282 131.707C405.569 142.466 420.621 162.436 418.68 201.717Z" fill="url(#paint0_linear_179_209)" style="mix-blend-mode:darken"/>
<path d="M353.204 333.865C365.231 390.511 408.414 403.656 428.219 412.979C365.379 351.34 360.325 310.012 380.816 240.013C394.47 201.787 397.78 154.609 398.902 145.041C385.01 181.897 336.562 255.474 353.204 333.865Z" fill="#F1F1F1"/>
<path d="M402.334 178.245C400.151 183.386 386.292 190.221 386.292 190.221L387.33 200.918C399.898 190.422 404.721 172.622 402.334 178.245Z" fill="#F1F1F1"/>
<path d="M370.527 175.316C371.281 190.909 373.647 198.688 373.812 204.499L380.866 198.385C378.896 197.257 372.29 181.946 370.527 175.316Z" fill="#F1F1F1"/>
<path d="M432.876 188.381L384.973 225.628L378.845 246.586L432.876 188.381Z" fill="#F1F1F1"/>
<path d="M358.529 197.076C354.553 205.121 363.402 224.437 368.323 233.09L375.17 223.005C366.454 221.211 360.444 204.971 358.529 197.076Z" fill="#F1F1F1"/>
<ellipse cx="20.9872" cy="29.8967" rx="20.9872" ry="29.8967" transform="matrix(0.99817 0.0604776 -0.0619059 0.998082 362.19 16.5249)" fill="#02001D"/>
<ellipse cx="16.9569" cy="24.1652" rx="16.9569" ry="24.1652" transform="matrix(0.989566 -0.144078 0.14742 0.989074 313.73 40.021)" fill="#02001D"/>
<ellipse cx="14.2047" cy="20.2875" rx="14.2047" ry="20.2875" transform="matrix(0.942224 -0.334984 0.342006 0.939698 283.776 74.2578)" fill="#02001D"/>
<ellipse cx="11.3758" cy="16.2472" rx="11.3758" ry="16.2472" transform="matrix(0.942224 -0.334984 0.342006 0.939698 261 102.445)" fill="#02001D"/>
<ellipse cx="28.9247" cy="40.8392" rx="28.9247" ry="40.8392" transform="matrix(0.961568 0.274567 -0.280569 0.959834 422.374 0)" fill="#02001D"/>
<defs>
<linearGradient id="paint0_linear_179_209" x1="401.82" y1="138.703" x2="354.646" y2="250.096" gradientUnits="userSpaceOnUse">
<stop stop-color="#006A3B" stop-opacity="0.54"/>
<stop offset="0.194" stop-color="#006A3B" stop-opacity="0.77"/>
<stop offset="0.499" stop-color="#006A3B" stop-opacity="0.92"/>
<stop offset="1" stop-color="#006A3B"/>
</linearGradient>
</defs>
</svg>
