<svg width="1440" height="226" viewBox="0 0 1440 226" fill="none" xmlns="http://www.w3.org/2000/svg">
<path d="M91.6951 -283.318C91.6951 -408.737 36.5919 -451.705 9.04036 -457.512C6.97399 -458.018 2.15247 -459.381 0 -460C0 -287.05 0.258296 60.5908 1.29148 67.5585C2.32466 74.5262 5.16592 85.3926 6.4574 89.9548C20.922 124.794 56.3946 123.549 72.3229 118.572C65.0906 168.342 107.193 189.909 129.148 194.471C150.845 243.245 218.26 224.748 249.256 209.402C304.014 224.333 331.48 180.784 338.368 157.144C434.454 218.858 538.547 175.393 578.583 145.946C618.877 156.895 675.444 129.771 698.691 114.84C813.374 190.49 944.397 107.021 999.5 75.5C989.256 184.752 1196.15 276.233 1270 139C1324.4 212.329 1429.63 186.114 1440 132.259V-331.843C1418.04 -352.995 1368.97 -377.88 1283.73 -366.682C1215.54 -357.723 1193.33 -289.954 1190.74 -257.189C1120.49 -288.046 1056.43 -254.285 1033.18 -233.548C843.078 -401.769 686.206 -277.926 631.534 -194.977C491.021 -362.203 333.632 -280.414 272.502 -218.617C230.142 -315.17 134.314 -301.981 91.6951 -283.318Z" fill="#7CB034"/>
</svg>
