<svg width="1440" height="329" viewBox="0 0 1440 329" fill="none" xmlns="http://www.w3.org/2000/svg">
<path d="M77.5157 203.468C77.5157 59.0344 20.1166 9.55249 -8.58296 2.86575C-10.7354 2.28277 -15.7578 0.71234 -18 0C-18 199.169 -17.7309 599.514 -16.6547 607.538C-15.5785 615.562 -12.6188 628.076 -11.2735 633.33C3.79372 673.45 40.7444 672.018 57.3363 666.286C49.8027 723.601 93.6592 748.437 116.529 753.691C139.13 809.86 209.354 788.558 241.641 770.886C298.682 788.08 327.291 737.93 334.466 710.705C434.556 781.776 542.987 731.721 584.691 697.809C626.664 710.419 685.587 679.182 709.803 661.987C829.265 749.106 973.928 698.287 1031.33 661.987C1031.33 661.987 1271.24 700.675 1319.22 661.987C1348.28 699.815 1439.85 691.123 1482 682.048V147.586C1459.13 123.227 1408.01 94.5696 1319.22 107.465C1248.19 117.782 1225.05 195.826 1222.36 233.558C1149.17 198.023 1082.45 236.902 1058.23 260.783C860.206 67.0585 696.798 209.677 639.848 305.202C493.48 112.624 329.534 206.811 265.857 277.977C221.731 166.786 121.91 181.975 77.5157 203.468Z" fill="#7CB034"/>
</svg>
